<?xml version="1.0" encoding="UTF-8"?>
<svg id="Layer_2" data-name="Layer 2" xmlns="http://www.w3.org/2000/svg" viewBox="0 0 781 908.53">
  <defs>
    <style>
      .cls-1 {
        fill: #fff;
      }

      .cls-1, .cls-2 {
        stroke-width: 0px;
      }

      .cls-2 {
        fill: #ed5123;
      }
    </style>
  </defs>
  <g id="Layer_1-2" data-name="Layer 1">
    <rect class="cls-1" width="781" height="908.53"/>
    <g>
      <g id="_14" data-name="14">
        <path class="cls-2" d="m374.56,558.26c-.15-1.09-.12-1.62-.3-2.08-4.89-12.73-5.54-26.02-5.14-39.43.28-9.59,4.75-14.54,14.05-15.89,5.95-.87,10.46,1.27,13.39,6.41,1.43,2.5,2.34,5.3,3.39,8,.59,1.52.98,3.12,1.77,5.71,1.73-3.28,2.93-5.64,4.22-7.96,5.21-9.35,13.47-12.41,23.44-8.79,5.03,1.83,8.35,5.22,9.73,10.42,2.55,9.59.38,18.35-5.1,26.32-5.24,7.62-11.07,14.79-18.19,20.84,4.19,2.62,9.1,4.44,12.1,7.92,2.93,3.4,3.89,8.49,6.15,13.87,2.2.49,5.5,1.22,8.79,1.93,1.67.36,3.55.52,4.03,2.58.53,2.27-1.07,3.51-2.71,4.47-3.54,2.07-7.17,3.98-11.1,6.15-.32,2.21-.75,4.71-1.02,7.22-1.19,11.03-4.88,16.9-19.29,19.92-13.83,2.9-28.02,2.27-41.56-2.21-7.64-2.53-14.5-7.04-19.8-13.28-5.37-6.33-6.62-14.18-6.61-22.16,0-3.72.68-7.51,1.58-11.14,1.82-7.42,6.37-12.5,13.4-15.85,4.64-2.21,9.28-3.24,14.78-2.97Zm28.21.92c2.6.89,4.74,1.84,7.07.08,9.72-7.34,17.45-16.38,22.8-27.29,2.47-5.04,3.1-10.59,1.08-15.98-.79-2.1-2.3-4.49-4.16-5.52-6.5-3.61-14.16-3.68-18.39,4.58-2.48,4.83-4.53,9.96-6.07,15.17-2.75,9.29-2.14,18.95-2.32,28.97Zm-33.66,4.85c-2.42.79-4.19,1.36-5.96,1.93-6.03,1.95-9.75,6.13-11.43,12.14-2.08,7.43-1.96,14.85.37,22.23,1.45,4.59,4.21,8.19,8.11,10.9,2.52,1.75,5.08,3.52,7.84,4.83,2.64,1.26,5.19,3.25,8.8,2.6.98-18.65,1.04-36.97-7.73-54.63Zm27.52-5.39c.2-4.59.51-8.5.5-12.41-.02-6.66.27-13.38-.53-19.96-.63-5.18-2.49-10.25-4.21-15.23-.91-2.63-2.98-4.59-6.06-4.91-6.31-.65-11.02,3.14-11.63,9.42-.13,1.36-.13,2.73-.16,4.1-.34,13.28,1.04,26.28,6.55,39h15.53Zm-11.21,5.7c5.49,18.52,7.04,37.44,5.35,56.98h12.05c.42-1.83.95-3.46,1.15-5.13,1.67-13.49,2.09-27.02-1.02-40.34-2.85-12.2-1.79-13.57-17.54-11.52Zm29.3,4.65c4.1,16.39,4.62,32.8,1.69,49.5,6.47-2.12,8.55-4.07,9.63-9.97,1.75-9.63,2.38-19.35.54-29.07-1.24-6.52-4.26-9.26-11.85-10.46Zm-38.97-4.77c1.21,3.78,2.42,7.32,3.47,10.91,3.81,13.01,3.69,26.35,3.26,39.71-.05,1.53-.22,3.11.07,4.59.12.6,1.3.98,2.15,1.57.34-.92.63-1.39.67-1.87,1.02-12.33.82-24.63-1.39-36.81-.97-5.37-2.5-10.64-3.86-15.93-.51-1.96-1.43-3.62-4.37-2.17Zm33.5,56.77c.97-.57,1.42-.69,1.45-.88,3.26-17.7,2.65-35.27-1.91-52.68-.16-.63-1.23-1.02-1.88-1.52,4.97,18.23,4.05,36.44,2.34,55.09Z"/>
        <path class="cls-2" d="m358.96,583c-.37,2.85-.67,4.78-3.11,5.01-1.63.16-2.72-1.46-2.59-3.62.15-2.49,1.94-4.65,3.58-3.93,1.08.48,1.7,2.01,2.12,2.54Z"/>
      </g>
      <g>
        <path class="cls-2" d="m385.6,407.32c-6.23-3.41-17.99-9.45-24.97-10.78-.96-10.15-6.12-19.41-21-26.85,63.21-16.72,18.15-92.25-23.84-32.5,8.07-35.22-11.1-57.63-28.93-56.24-22.54,1.76-36.73,40.2-12.23,77.91-59.62,5.37-79.55,76.34,11.29,82.73,27.08,1.9,57.29-2.5,70.55-26.06,9.04-1.24,18.13-1.54,27.25-1.27,3.67.11,5.09-5.18,1.88-6.94Zm-128.89,20.21c-38.75-14.25-26.23-50.04,7.78-58.42-.88,9.39,6.58,24.4-7.59,57.85-.08.19-.13.38-.18.58Zm32.75,6.17c-8.52-.51-16.94-1.86-24.83-3.81,12.05-20.97,10.54-51.88,3.3-61.56,6.73-1.39,13.58-2.17,20.22-3.91-.65,6.16.87,21.44,1.38,55,.06,4.18-.78,9.67-.07,14.28Zm-9.35-75.45c-.93-.37-1.36-1.43-1.68-2.37-2.72-7.95-5.42-15.95-6.97-24.22s-1.92-16.85,0-25.04c.85-3.62,2.17-7.17,4.3-10.21s5.13-5.56,8.67-6.69c6.46-2.07,13.76.87,18.38,5.83,3.99,4.28,6.34,9.88,7.59,15.59,3.3,15.11-.69,30.87-6.3,45.29-.16.41-.34.84-.7,1.09-.4.28-.94.27-1.43.24m18.39,73.47c-7.45,1.83-15.31,2.65-23.21,2.68.78-4.09.09-57.45-4.39-70.91,7.87,1.98,15.68,3.91,23.42,6.28.26,4.49,7.54,25.46,4.18,61.94Zm-10.78-72.1c5.7-9.33,11.53-18.92,19.17-26.74,22.7-23.23,44.64-2.47,30.82,17.27-8.97,12.81-28.11,13.99-30.21,15.63m-.95,63.5c3.08-13.25,1.28-25.71-4.18-56.86,8.42,2.95,17.63,6.45,23.49,13.39,10.12,12.01,4.56,34.61-19.31,43.46Zm31.36-21.36c.45-1.72.75-3.48.91-5.29,10.69,6.23,11.9,3.89-.91,5.29Z"/>
        <path class="cls-2" d="m248.54,388.54c-5.48.1-7.93,7.59-4.25,11.18,2.19,2.61,7.79,3.75,9.21-.47,1.25-3.69.07-10.81-4.97-10.72Zm.73,6.17s0,0,0,0c-.12-.03-.1-.02,0,0Zm-.18-.02c.23.05.19.02.22.08-.08-.01-.17-.04-.22-.08Z"/>
        <path class="cls-2" d="m629.44,485.34c-6.3-39.12-57.09-70.55-115.47-48.42-23.28,8.82-9.38,11.64-21.34-6.8-14.15-21.83-42.42-31.66-66.47-20.72-.74.33-.21,1.49.54,1.29,31.55-8.68,60.44,8.8,66.77,36.71.24,1.08-2.34,1.25-7.96,7.99-20.74,24.84,10.97,36.91,15.24,6.63,1.23-8.74-.9-9.91.69-10.94,41.69-27.03,105.83-17.84,122.85,35.69,1.06,3.34,5.69,1.92,5.15-1.42Zm-143.5-14.41c-1.39-4.1,5.33-11.41,8.49-14.38-.21,7.69-6.77,19.44-8.49,14.38Z"/>
      </g>
    </g>
  </g>
</svg>