<?xml version="1.0" encoding="UTF-8"?>
<svg id="Layer_2" data-name="Layer 2" xmlns="http://www.w3.org/2000/svg" viewBox="0 0 781 908.53">
  <defs>
    <style>
      .cls-1 {
        fill: #fff;
      }

      .cls-1, .cls-2 {
        stroke-width: 0px;
      }

      .cls-2 {
        fill: #ed5123;
      }
    </style>
  </defs>
  <g id="Layer_1-2" data-name="Layer 1">
    <rect class="cls-1" width="781" height="908.53"/>
    <g>
      <g>
        <path class="cls-2" d="m416.75,600.59c-.27,0-.53-.06-.77-.19-58.06-30.76-101.76-55.43-141.71-80-.38-.24-.65-.62-.75-1.06-13.27-61.73-23.18-121.19-30.28-181.75-.07-.56.16-1.12.6-1.48,3.13-2.52,5.7-5.34,8.41-8.33.26-.28.61-.47.99-.52,64.21-9.19,133.11-15.51,210.62-19.32.83-.03,1.56.54,1.71,1.36,8.5,47.93,16.66,99.21,24.55,148.83,37.72,22.49,75.18,46.27,111.4,69.26.42.27.78.77.84,1.27.45,4.1-.89,7.63-2.19,11.04-.17.44-.51.78-.94.95-57.38,22.52-118.63,42.67-182.05,59.88-.14.04-.29.06-.43.06Zm-140.15-82.63c39.59,24.33,82.93,48.79,140.35,79.22,62.83-17.08,123.51-37.04,180.4-59.33,1.01-2.69,1.91-5.27,1.79-8.05-36.28-23.03-73.7-46.78-111.37-69.22-.42-.25-.71-.68-.79-1.16-7.86-49.42-15.96-100.4-24.41-148.11-76.58,3.81-144.73,10.07-208.27,19.14-2.36,2.6-4.82,5.25-7.67,7.65,7.06,59.92,16.87,118.78,29.98,179.86Z"/>
        <path class="cls-2" d="m420.15,587.45c-1.52,0-8.19-2.8-69.75-36.53-33.21-18.2-66.52-36.72-66.85-36.91-.43-.24-.74-.67-.82-1.15l-32.47-182.42c-.16-.9.44-1.75,1.34-1.91.9-.16,1.76.44,1.91,1.34l32.33,181.65c51.06,28.4,127.67,70.48,134.14,72.6,59.86-16.49,119.92-35.22,178.52-55.67.86-.3,1.8.15,2.1,1.02.3.86-.15,1.8-1.01,2.1-58.79,20.51-119.05,39.3-179.1,55.83-.1.03-.2.06-.35.06Zm-.51-3.24s-.01,0-.02,0c0,0,.01,0,.02,0Z"/>
        <path class="cls-2" d="m274.65,353.11c4.02,46.65,10.64,82.37,19.66,126.36.45,2.2,1.06,4.64,2.96,5.85,1.75,1.13,4.03.82,6.09.47,52.82-9.09,107.22-22.94,159.46-34.93,2.78-.64,5.51-2.03,7.27-4.27,2.47-3.16,2.11-7.61,1.62-11.59-3.8-31.03-11.72-67.83-15.52-98.86-.42-3.39-.92-6.99-3.12-9.61-3.63-4.31-10.18-4.21-15.8-3.74-49.15,4.17-104.81,11.97-153.71,18.45-6.71.89-9.46,5.52-8.92,11.88Z"/>
        <path class="cls-2" d="m277.48,520.58c-.46,0-.92-.19-1.25-.57-.6-.69-.52-1.73.17-2.33,2.18-1.89,4.36-3.78,8.66-7.4.19-.16.41-.27.64-.33,20.12-5.31,44.18-11.8,69.66-18.67,47.26-12.75,96.14-25.93,131.51-34.76.88-.21,1.78.32,2,1.2.22.89-.32,1.78-1.2,2-35.35,8.82-84.2,22-131.45,34.74-25.33,6.83-49.27,13.28-69.32,18.58-4.1,3.44-6.22,5.28-8.34,7.12-.31.27-.7.4-1.08.4Z"/>
        <path class="cls-2" d="m420.28,570.92c-.32,0-.63-.09-.91-.27-25.21-16.59-55.13-32.67-92.29-51.73-.61-.31-.96-.96-.89-1.64.07-.68.55-1.24,1.21-1.42,23.39-6.3,48.6-13.31,75.29-20.73,25.52-7.1,51.91-14.43,76.85-21.18.39-.11.81-.06,1.18.12,26.39,13.32,57.73,33.02,82.09,48.7.54.35.83.98.74,1.62-.09.64-.54,1.17-1.15,1.35-38.19,11.61-94.41,28.92-141.58,45.1-.17.06-.36.09-.54.09Zm-87.9-52.99c35.18,18.09,63.8,33.57,88.12,49.51,45.68-15.65,99.63-32.31,137.52-43.83-23.65-15.18-53.17-33.61-78.23-46.31-24.74,6.7-50.91,13.97-76.21,21-25.14,6.99-48.96,13.61-71.2,19.63Z"/>
        <path class="cls-2" d="m436.91,563.28c-.33,0-.67-.1-.96-.31-26.34-18.79-54.34-35.72-83.21-50.33-.81-.41-1.14-1.41-.73-2.22.41-.82,1.4-1.14,2.22-.73,29.02,14.69,57.16,31.71,83.64,50.59.74.53.91,1.56.39,2.3-.32.45-.83.69-1.35.69Z"/>
        <path class="cls-2" d="m537.66,531.17c-.36,0-.73-.12-1.03-.36-22.73-18.27-47.19-34.69-72.7-48.81-.8-.44-1.09-1.45-.64-2.24.44-.8,1.45-1.08,2.24-.64,25.68,14.21,50.3,30.74,73.17,49.13.71.57.82,1.61.25,2.32-.33.4-.8.62-1.29.62Z"/>
        <path class="cls-2" d="m439.65,545.81c-.36,0-.73-.12-1.04-.37-12.95-10.45-30.42-21.01-45.83-30.33-5.41-3.27-10.53-6.37-15.34-9.38-.77-.48-1.01-1.5-.52-2.27.48-.77,1.5-1.01,2.27-.52,4.79,3,9.89,6.08,15.3,9.35,15.5,9.37,33.08,20,46.2,30.58.71.57.82,1.61.25,2.32-.33.4-.8.61-1.29.61Z"/>
        <path class="cls-2" d="m502.36,525.75c-.38,0-.76-.13-1.07-.4-17.27-14.78-36.25-27.6-56.4-38.1-.81-.42-1.12-1.42-.7-2.23.42-.81,1.42-1.12,2.23-.7,20.38,10.62,39.56,23.58,57.02,38.52.69.59.77,1.63.18,2.33-.33.38-.79.58-1.25.58Z"/>
        <path class="cls-2" d="m483.07,532.44c-.39,0-.78-.14-1.09-.41-16.96-14.93-35.5-28.19-55.1-39.42-.79-.45-1.06-1.46-.61-2.25.45-.79,1.46-1.06,2.25-.61,19.79,11.34,38.51,24.73,55.64,39.81.68.6.75,1.65.15,2.33-.33.37-.78.56-1.24.56Z"/>
        <path class="cls-2" d="m463.94,537.27c-.32,0-.65-.1-.94-.29l-56.48-39.11c-.75-.52-.94-1.55-.42-2.3.52-.75,1.55-.93,2.3-.42l56.48,39.11c.75.52.94,1.55.42,2.3-.32.46-.84.71-1.36.71Z"/>
        <path class="cls-2" d="m353.69,532.44c-.69,0-1.33-.43-1.56-1.12-.29-.86.17-1.8,1.03-2.1,47.4-16.17,95.96-31.01,144.31-44.11.88-.25,1.79.28,2.02,1.16.24.88-.28,1.79-1.16,2.02-48.29,13.08-96.77,27.9-144.11,44.05-.18.06-.36.09-.53.09Z"/>
        <path class="cls-2" d="m379.3,545.05c-.68,0-1.31-.42-1.55-1.09-.31-.86.14-1.8,1-2.11,46.04-16.5,93.32-31.32,140.53-44.05.88-.23,1.79.29,2.02,1.17.24.88-.28,1.79-1.16,2.02-47.12,12.7-94.32,27.49-140.28,43.97-.18.07-.37.1-.56.1Z"/>
        <path class="cls-2" d="m404.64,558.9c-.68,0-1.32-.42-1.56-1.1-.3-.86.15-1.8,1.01-2.11,45.57-16.1,92.25-30.94,138.74-44.1.88-.25,1.79.26,2.04,1.14.25.88-.26,1.79-1.14,2.04-46.43,13.14-93.04,27.96-138.54,44.03-.18.06-.37.09-.55.09Z"/>
        <path class="cls-1" d="m307.47,357.72c-.63-1.36-2.51-.69-3.7-.71-3.68.39-7.56.75-11.01,2.05-1.46,1-.23,3.43,1.45,2.91,3.43-.79,6.9-1.39,10.36-2.04,1.23-.18,3.57-.4,2.9-2.2Z"/>
        <path class="cls-1" d="m338.72,352.22c-8.68,1.13-17.31,2.62-25.97,3.9-1.81.51-1.06,3.27.77,2.79,5.87-.82,15.68-1.99,20.84-2.8,2.06-.42,4.55-.1,6.29-1.4,1.22-1.36-.46-2.79-1.92-2.48Z"/>
        <path class="cls-1" d="m355.61,360.08c-15.57,2.02-31.01,5.53-46.45,8.48-4.37.91-8.77,1.72-13.16,2.56-.41.11-.75.38-.96.74-.73,1.18.48,2.78,1.82,2.36,19.24-3.76,41.6-6.93,59.24-11.37,2.35-.3,1.87-3.29-.49-2.77Z"/>
        <path class="cls-1" d="m369.03,359.9c-.76-.71-1.91-.5-2.87-.51-1,.13-2.22-.16-3,.62-1.14,1.06-.28,3.14,1.28,3.09,1.45-.23,3.13-.02,4.42-.78.79-.53.84-1.79.16-2.43Z"/>
        <path class="cls-1" d="m306.26,383.3c-.47-.82-1.56-.75-2.39-.72-2.01.22-4.1.19-6.07.6-1.6.57-1.07,3.13.62,3.07,1.93-.48,9.36.09,7.83-2.96Z"/>
        <path class="cls-1" d="m340.09,376.74c-1.13-.4-2.47-.1-3.66-.03-8.19,1.47-16.68,2.12-24.74,3.92-1.38.95-.22,3.27,1.38,2.77,8.88-1.47,17.92-2.21,26.69-4.15,1.14-.28,1.36-1.94.33-2.51Z"/>
        <path class="cls-1" d="m379.28,369.4c-10.74,1.67-21.49,3.25-32.21,4.99-2.02.56-1.19,3.66.86,3.11,11.09-1.92,22.43-3.26,33.37-5.63,1.49-1.45-.07-3.12-2.02-2.47Z"/>
        <path class="cls-1" d="m341.85,390.59c-10.54,2.11-20.95,4.96-31.44,7.34-2.97.71-5.93,1.42-8.9,2.13-.36.1-.67.34-.86.66-.65,1.05.42,2.48,1.62,2.11,13.2-3.35,28.35-6.03,41.1-9.93,1.31-1.09-.03-2.83-1.53-2.3Z"/>
        <path class="cls-1" d="m370.01,387.29c-.34-.31-.84-.36-1.28-.35-2.35.16-4.66.67-6.99.99-3.66.57-7.32,1.14-10.98,1.71-.6.16-1.12.71-1.16,1.35-.22,1.1.96,2.11,2.02,1.78,4.67-.7,9.34-1.39,14.02-2.09,1.61-.44,4.14,0,4.92-1.8.16-.57-.05-1.25-.54-1.58Z"/>
        <path class="cls-1" d="m337.91,410.32c-.89-.4-1.96,0-2.91.05-9.82,1.68-19.49,4.15-29.22,6.25-2.06.58-1.21,3.74.88,3.18,10.42-2.47,21.27-3.79,31.39-7.26.77-.52.66-1.78-.14-2.22Z"/>
        <path class="cls-1" d="m356.52,407.03c-1.1-.57-2.35-.08-3.5.06-2.72.65-5.73.66-8.3,1.67-1.56,1.07-.25,3.67,1.55,3.11,3.35-.7,6.87-.88,10.12-1.92,1.17-.55,1.36-2.32.13-2.92Z"/>
        <path class="cls-1" d="m462.63,411.01c-1.07-.77-2.64-.27-3.87-.19-12.15,1.74-24.29,3.57-36.41,5.49-2.11-19.52-4.6-39-7.22-58.47-1.24-8.97-2.56-17.94-3.9-26.9-.44-1.69-3.17-1.02-2.67.73,4.4,28.44,7.9,56.52,11.14,85.05-26.41,4.2-52.76,8.83-79.01,13.96-10.69,2.07-21.37,4.18-32.03,6.41-4.03.84-8.06,1.69-12.08,2.55-.35.1-.65.33-.83.64-.61,1.02.4,2.41,1.57,2.05,40.66-8.82,81.59-16.43,122.71-22.83,1.1,9.75,2.18,19.56,3.25,29.46.34,1.78.03,3.84.78,5.46.62.65,1.85.17,1.81-.75-.89-11.54-1.98-23.06-3.21-34.57,12.45-1.92,24.91-3.75,37.39-5.45,1.38-.21,3.99-.79,2.59-2.64Z"/>
        <path class="cls-1" d="m442.29,335.51c-1.08-.43-2.32-.08-3.45-.08-6.37.79-12.96,1.44-19.18,2.79-1.38.95-.22,3.26,1.38,2.76,5.07-.74,8.87-1.1,14.45-1.89,2.3-.44,4.8-.52,6.93-1.5.72-.49.62-1.67-.13-2.09Z"/>
        <path class="cls-1" d="m446.76,344.54c-2.7.41-5.41.8-8.11,1.2-5.34.95-10.93,1.3-16.13,2.65-1.37.94-.22,3.23,1.36,2.74,7.98-1.19,15.95-2.47,23.92-3.73.91-.21,2.17-.26,2.47-1.32.39-2.11-2.17-1.81-3.51-1.54Z"/>
        <path class="cls-1" d="m433.79,357.18c-2.77-.04-5.54.37-8.23,1.03-.45.12-.85.43-1.08.83-.84,1.33.54,3.13,2.04,2.66,3.39-.82,4.76-.91,8.53-1.05.9-.09,2.16-.08,2.53-1.09.75-2.2-2.31-2.4-3.8-2.39Z"/>
        <path class="cls-1" d="m444.91,367.98c-.9-.43-1.96-.05-2.91,0-5.38.94-11.04,1.19-16.29,2.5-1.39.96-.22,3.29,1.39,2.78,5.71-.91,11.47-1.59,17.16-2.64,1.34-.12,1.85-1.95.65-2.64Z"/>
        <path class="cls-1" d="m437.41,380.79c-.6-.35-1.33-.23-1.98-.17-1.81.22-3.61.54-5.42.8-.46.13-.87.44-1.11.85-.86,1.36.56,3.21,2.1,2.73,2.16-.51,4.6-.4,6.59-1.42.96-.66.83-2.23-.17-2.79Z"/>
        <path class="cls-1" d="m448.66,422.42c-.7-.68-1.75-.36-2.61-.25-2.05.43-4.11.82-6.19,1.1-.4.05-2.5.3-3.06.32-1.46.31-3.26-.26-4.5.63-.94.88-.23,2.61,1.07,2.57,4.77-.18,9.62-.56,14.23-1.87,1.11-.23,2-1.56,1.06-2.5Z"/>
        <path class="cls-1" d="m447.93,431.7c-1.51-.6-3.23-.13-4.81-.07-2.41.31-4.92.29-7.29.77-1.86.66-1.24,3.64.72,3.56,3.65-.41,7.38-.38,10.97-1.15,1.42-.35,1.69-2.41.41-3.12Z"/>
        <path class="cls-1" d="m392.28,435.83c-22.31,3.27-44.4,7.92-66.61,11.77-5.86,1.21-11.94,1.89-17.7,3.38-1.16.8-.2,2.78,1.17,2.35,27.81-5.07,55.79-9.3,83.49-14.93,1.41-.35,1.14-2.6-.35-2.56Z"/>
        <path class="cls-1" d="m333.62,453.49c-5.99.87-12.14,1.97-17.92,3.61-1.54,1.06-.25,3.64,1.53,3.08,5.36-1.16,10.79-2.05,16.09-3.49.84-.27,1.94-.52,2.24-1.46.32-1.18-.89-1.88-1.94-1.74Z"/>
        <path class="cls-1" d="m349.66,451.64c-.66-.69-1.68-.37-2.51-.21-1.42.43-3.01.56-4.31,1.25-1.44.99-.23,3.38,1.43,2.86,1.74-.75,7.36-.91,5.39-3.9Z"/>
        <path class="cls-1" d="m371.08,457.53c-19.13,2.03-38.11,5.62-56.79,10.22-.78.25-1.78.22-2.23,1-.65,1.04.42,2.46,1.61,2.09,19.2-4.88,39.77-8.42,58.24-10.94,1.63-.54.8-2.83-.83-2.37Z"/>
        <path class="cls-2" d="m492.06,393.1c-.13-1.71-.34-3.41-.56-5.11-1.07-6.23-1.34-12.78-2.87-18.85-1.13-1.65-3.89-.27-3.29,1.64.87,6.13,1.71,12.27,2.6,18.4.54,1.86.35,8.4,3.67,6.19.59-.6.49-1.5.45-2.27Z"/>
        <path class="cls-2" d="m500.22,384.62c-.68-2.56-.86-5.39-1.88-7.81-1.12-1.63-3.84-.26-3.25,1.62.68,2.89,1.26,5.8,2.03,8.67.17,1.53,1.64,3.11,3.08,1.8,1.05-1.19.13-2.9.02-4.28Z"/>
      </g>
      <path class="cls-2" d="m572.7,412.34c-.24,0-.47-.04-.71-.07-.22-.04-.52-.08-.68-.12-.43-.03-2.09-.59-2.66-.78-5.69-2.37-8.49-7.35-8.98-12-.09-.43-.05-2.07-.09-2.06.09-.62.16-1.29-.3-1.77-.52-.78-1.78-.94-2.49-.32-.9.8-1.02,2.19-1.53,3.25-1.05,2.61-1.82,4.62-3.64,7.73-1.78,3.04-4.03,5.56-6.65,7.21-1.42-.44-2.59-.21-3.12,1.25-.01.09,0,.15,0,.24-.04.01-.08.03-.11.04-2.03.57-1.19,3.68.86,3.13.51-.15,1-.33,1.48-.53.15.06.28.12.39.19,3.31,1.88,2.37,1.29,4.81,3.48,3.76,4,5.82,8.43,5.19,14.39-.05,1.52,1.79,2.58,3.08,1.77,1.12-.69,1.14-2.14,1.58-3.26,3.09-10.45,7.2-16.38,15.61-18.35,1.77-1.61.26-3.78-2.02-3.43Zm-15.51,14.72c-.54-1.55-1.25-3.11-2.21-4.7-.61-1.39-3.69-4.91-6.75-7.16,3.78-2.83,6.49-6.97,8.59-11.36,1.55,4.83,5.25,8.88,9.91,10.88-4.4,2.78-7.6,7.49-9.53,12.35Z"/>
      <path class="cls-2" d="m223.21,463.69c-3.47-.29-5.94-1.45-7.73-4.74-.25-.62-.28-.42-.64-1.83-.09-.55-.21-1.18-.73-1.5-1.11-.92-2.65,0-2.86,1.31-.01.31-1.49,3.08-2.59,4.42.27-.1-3.75,3.89-4.01,3.75-1.07.9-2.59,1.2-3.56,2.17-1.29,1.5.73,3.78,2.4,2.73.19-.08.37-.19.56-.28,1.65,1.08,3.47,1.9,3.98,2.55,2.49,2.38,3.73,4.64,3.99,7.48,0,.48,0,.95.04,1.43,0,.04.01.07.01.11,0,0,0,0,0,0h0c.05.68.35,1.35.97,1.69.92.53,2.14.22,2.68-.7.19-.35.25-.72.25-1.11,0,0,0,0,.01,0-.07-.85-.08-1.7,0-2.55.13-1.73.78-4.19,2.05-6.29.61-1.42,3.39-4.2,3.72-4.36.74-.71,1.98-.98,2.39-1.97.41-.83-.06-2-.94-2.31Zm-8.46,6.62c-.54.91-1,1.86-1.39,2.84-.61-1-1.37-2.02-2.35-3.17-.96-1.02-2.04-2.01-3.13-2.75,2.01-1.69,3.75-3.74,4.97-5.71.09.14.16.29.25.43,1.14,1.96,3.18,3.35,5.17,4.19-1.36,1.21-2.56,2.61-3.52,4.16Z"/>
      <path class="cls-2" d="m200.82,430.71c-1.08-.05-1.02-.03-2.73-.55-3.64-1.18-6.74-5.07-7.34-9.12.01-.11.02-.22.03-.33-.02,0-.05,0-.07,0-.03-.25-.08-.49-.09-.73-.44-1.24-2.19-1.55-3.08-.61-.83.94-.62,2.37-1.08,3.51-.07.33-.57,1.7-.75,2.21-1.72,4.17-4.31,6.51-6.71,8.51-1.38,1.6.78,4.03,2.56,2.91.05-.04.1-.09.16-.13.51.33,1.1.65,1.67,1.1,1.14.81,1.91,1.45,2.96,3.48.56.82.95,3.13.94,4.52-.43,1.37-.82,2.8-.34,3.94.63,1.13,2.3,1.34,3.2.41.26-.26.41-.57.51-.9,0,0,0,0,.01,0,0-.02.01-.05.01-.07.09-.3.14-.62.18-.93,1.53-7.51,4.96-13.2,9.84-13.55.03,0,.04-.02.07-.02.91.02,1.81-.17,2.15-1.11.37-1.89-.66-2.53-2.1-2.54Zm-11.24,8.26c-1.04-2.24-2.59-4.05-4.67-5.46,1.68-1.83,3.06-3.93,4.08-6.2.25.41.51.8.79,1.12,1.32,1.8,3.08,3.28,5.07,4.32-.01,0-.03.02-.04.03-2.32,1.54-4,3.74-5.23,6.19Z"/>
    </g>
  </g>
</svg>