<?xml version="1.0" encoding="UTF-8"?>
<svg id="Layer_2" data-name="Layer 2" xmlns="http://www.w3.org/2000/svg" viewBox="0 0 133.03 132.58">
  <defs>
    <style>
      .cls-1 {
        fill: none;
        fill-rule: evenodd;
        stroke: #eb5123;
        stroke-miterlimit: 10;
      }
    </style>
  </defs>
  <g id="Layer_1-2" data-name="Layer 1">
    <g>
      <path class="cls-1" d="m116.19,2c-1.64,2.67-1.12,7.54,1.78,16.54,1.36,4.12,2.72,8.43,3.05,9.61.56,1.97.7,2.11,2.25,2.11s1.69-.14,2.25-2.11c.33-1.17,2.06-6.56,3.89-11.95,3.98-12.18,4.08-13.82.8-13.82-1.73,0-3.42,1.69-4.78,4.78l-1.08,2.44-1.03-3.14c-1.87-5.58-5.11-7.64-7.12-4.45h0Z"/>
      <path class="cls-1" d="m43.09,28.2c-.84.84-.94,1.31-.66,3.65.14,1.45.61,3.8.98,5.25.84,3.47.89,3.47-.7,2.34-2.25-1.64-6.28-3.33-7.87-3.33-4.64,0-3.7,6.89,1.45,10.78,2.72,2.01,17.66,10.07,19.63,10.54,1.73.47,2.76-.42,2.39-2.06-.19-.66-1.12-2.91-2.11-4.97-.94-2.06-2.95-7.12-4.4-11.25-3.19-8.86-3.56-9.7-5.2-10.96-1.59-1.22-2.3-1.22-3.51,0Z"/>
      <path class="cls-1" d="m120.92,47.12c-1.55,1.83-2.72,32.85-1.36,35.61,1.31,2.67,3.51,2.76,4.22.19.42-1.45.42-26.47,0-32.05-.23-3.8-.37-4.22-1.27-4.36-.52-.09-1.27.19-1.59.61Z"/>
      <path class="cls-1" d="m67.04,65.4c-.37.47-.47,1.03-.19,1.64.8,1.73,24.36,23.29,26.89,24.6,1.64.84,3.28.28,3.28-1.12,0-.47-3.47-4.12-8.06-8.57-16.4-15.65-20.24-18.55-21.93-16.54Z"/>
      <path class="cls-1" d="m3.78,113.8c-3.98,1.27-2.58,6.09,2.39,7.97l2.34.84-2.58,1.08c-4.5,1.83-6.79,5.72-4.59,7.68,1.31,1.17,2.62.98,9.28-1.31,3.33-1.12,8.06-2.39,10.5-2.81,7.82-1.31,10.78-2.58,10.78-4.69,0-1.55-1.31-2.44-4.92-3.23-1.78-.42-6.33-1.59-10.07-2.62-9.04-2.48-12.28-3.19-13.12-2.91Z"/>
      <path class="cls-1" d="m80.53,118.86c-.19.14-4.69.33-10.07.47-12.32.23-23.52.98-25.82,1.73-1.31.42-1.78.84-1.87,1.78-.28,2.25.42,2.39,10.31,1.87,4.97-.28,11.9-.61,15.37-.8,7.36-.28,15.84-1.41,16.73-2.11.84-.75.75-1.55-.23-2.44-.84-.75-3.84-1.12-4.4-.52Z"/>
    </g>
  </g>
</svg>