<?xml version="1.0" encoding="UTF-8"?>
<svg id="Layer_2" data-name="Layer 2" xmlns="http://www.w3.org/2000/svg" viewBox="0 0 781 908.53">
  <defs>
    <style>
      .cls-1 {
        fill: #ed5123;
      }

      .cls-1, .cls-2 {
        fill-rule: evenodd;
      }

      .cls-1, .cls-2, .cls-3 {
        stroke-width: 0px;
      }

      .cls-2, .cls-3 {
        fill: #fff;
      }
    </style>
  </defs>
  <g id="Layer_1-2" data-name="Layer 1">
    <rect class="cls-3" width="781" height="908.53"/>
    <g>
      <g>
        <path class="cls-1" d="m499.9,237.17c-2.36.97-3.61,3.89-3.97,9.32-.1,1.41-.33,3.76-.51,5.25-.2,1.49-.49,3.89-.64,5.38-.15,1.49-.44,3.23-.61,3.87-.77,2.51-.36,5.17.72,4.76.82-.31,1.97-3.07,2.33-5.61.38-2.82,1.9-7.12,4.3-12.37,2.46-5.38,2.94-7.35,2.23-9.19-.46-1.23-2.48-1.97-3.84-1.41Z"/>
        <path class="cls-1" d="m483.46,246.18c-1.08.92-2,2.64-2.56,4.87-.51,2.02-.54,2.36-.26,8.35l.28,6.22.92.95c.85.85.97.87,1.25.49.18-.23.51-1.38.77-2.56s1.08-4.33,1.87-6.99c2.1-7.35,2.3-9.94.82-11.42-.69-.69-2.2-.64-3.1.1Z"/>
        <path class="cls-1" d="m508.94,249.69c-1.08.64-2.23,2.25-2.92,4.07-.44,1.18-1.43,5.2-2.82,11.52-.26,1.2,0,1.82.77,1.82.61,0,1.2-.67,2.05-2.33,1.31-2.59,2.77-4.94,4.46-7.2,1.82-2.46,2.41-4.05,2.1-5.84-.36-2.05-2.07-3.02-3.64-2.05Z"/>
        <path class="cls-1" d="m523.21,273.28c-3.41.41-16.47,1-33.55,1.51-4.71.15-10.14.38-12.04.51-3.12.23-6.71.41-26.12,1.28-3.18.15-6.04.33-6.4.38-.59.1-10.27.77-21.13,1.41-2.25.15-7.96.54-12.68.9-4.71.33-11.75.79-15.62,1.02-3.87.23-8.37.51-9.99.64-3.41.28-11.29.72-18.31,1.02-6.15.26-14.55.92-18.05,1.38-1.49.2-4.48.44-6.66.54-6.48.23-11.96.9-12.91,1.54-1.33.9-1.46,1.46-1.05,4.25.2,1.33.56,4.05.77,6.02.23,1.95.69,4.99,1.02,6.76.59,3.02,1.1,6.58,1.66,11.52.15,1.2.44,3.28.64,4.61,1.15,7.53,1.43,9.5,1.89,13.57.28,2.46.69,6.73.92,9.47.9,10.81,1.2,13.88,1.95,18.44.77,4.76,1.25,6.25,2.18,6.76.26.15,1.25.77,2.23,1.36.95.61,1.82,1.1,1.92,1.1s.49.15.87.36c1.74.92,2.43,1,4.12.44,2.05-.67,6.84-1.59,13.62-2.59,2.97-.44,5.84-.9,6.4-1.02s1.1-.15,1.2-.05c.23.26.9,4.4,1.36,8.63.23,1.97.79,6.81,1.28,10.76.49,3.92.9,7.53.9,7.99,0,1.13.59,2.54,1.23,2.87.69.36,5.2.9,5.99.72.36-.1.85-.56,1.15-1.13.31-.54,1.43-2.07,2.54-3.41,1.08-1.33,2.48-3.18,3.12-4.1.67-.92,2.69-3.69,4.53-6.15,3.23-4.28,4.74-6.63,6.91-10.63.54-1,1.9-3.35,3-5.3l2.02-3.48,1.2-.15c2.61-.31,7.32-.69,11.83-.92,2.61-.15,5.89-.44,7.3-.61,1.41-.2,4.99-.72,7.94-1.13,2.97-.44,7.17-1.02,9.35-1.31,2.18-.28,5.63-.77,7.68-1.02,3.79-.51,7.45-.82,16.39-1.31,2.74-.15,6.56-.38,8.45-.51,4.56-.33,12.09-.67,23.51-1.05,7.78-.26,10.14-.26,14.34.05,5.79.41,7.17.38,7.68-.1.38-.38,1-4.56,1.69-11.45,1.51-14.96,1.72-16.34,4.89-35.98,1.25-7.61,1.89-11.24,3.61-20.15.36-1.9.33-2.77-.15-3.92-.1-.28-.33-1.72-.49-3.18-.15-1.51-.51-3.15-.79-3.79s-.51-1.43-.51-1.74-.2-.74-.44-.95c-.49-.41-2.02-1-2.48-.95-.15.03-1.02.13-1.95.26Zm1.95,3.74c-.08.41-.2,1.36-.28,2.13-.08.77-.44,3.12-.77,5.25-.33,2.1-.74,4.94-.9,6.27-.18,1.33-.74,4.79-1.28,7.68-.54,2.89-1.28,7.2-1.66,9.6-.36,2.38-1,6.4-1.41,8.89-.97,5.76-1.95,12.83-2.3,16.47-.15,1.54-.51,4.94-.77,7.55-.28,2.61-.61,5.66-.72,6.79l-.18,2.05-3.59.15c-10.45.49-16.52.77-22.41,1-21,.85-28.99,1.25-39.18,2.05-7.55.59-18.26,1.59-21.89,2.05-2.1.28-6.09.74-8.83,1.02-12.8,1.31-19.77,2.23-21.18,2.84-.87.36-1.2.72-1.77,1.82-.36.74-1.74,3.25-3.05,5.58-1.28,2.33-3.25,5.84-4.35,7.81-2.41,4.28-11.4,17.8-11.4,17.13,0-.82-2.1-16.47-2.71-20.33-.87-5.43-2.36-9.94-3.46-10.52-.61-.31-1.56-.26-7.14.38-4.17.51-7.43.97-15.21,2.23-3.51.54-6.48.92-6.58.82-.18-.2-.95-5.4-1.51-10.06-.13-1.2-.41-4.38-.64-7.04-.85-10.86-1.64-17.85-2.84-25.22-.36-2.18-.82-5.25-1-6.79-.79-6.45-1.2-9.35-1.66-11.78-.26-1.41-.72-4.46-1.02-6.79-.28-2.33-.69-5.15-.9-6.25-.2-1.13-.36-2.07-.31-2.1.18-.18,5.97-.59,10.42-.74,2.61-.1,5.84-.33,7.17-.51,1.33-.2,4.23-.49,6.4-.64,2.18-.13,4.35-.33,4.84-.41.49-.08,3.25-.23,6.15-.36,6.25-.26,12.8-.64,19.87-1.15,2.82-.2,7.14-.49,9.6-.64,5.61-.33,10.73-.67,17.29-1.15,2.82-.2,7.25-.49,9.86-.64,11.22-.61,22-1.28,23.18-1.41.72-.08,7.73-.41,15.62-.77,7.89-.36,14.8-.69,15.36-.77.56-.08,4.53-.23,8.83-.38,4.3-.13,9.88-.36,12.42-.51,2.54-.13,8.3-.38,12.8-.54,4.51-.15,8.89-.36,9.73-.49.85-.1,1.97-.2,2.51-.23.95-.03.97,0,.85.67h0Zm-180,89.86c-.08.08-.31.1-.49.03-.2-.08-.13-.15.15-.15.28-.03.44.05.33.13Z"/>
        <path class="cls-1" d="m440.98,294.43c-.28.33-.38,3.74-.56,18.23-.23,21.05-.23,21.56.44,22.28.64.72,1.97.72,2.61,0,.44-.49.49-1.25.69-9.14.13-4.74.23-13.62.26-19.72l.05-11.11-.61-.49c-.74-.61-2.38-.64-2.87-.05Z"/>
        <path class="cls-1" d="m357.16,301.39c-.82.9-.77,2.66.23,8.35,2.41,13.67,3.51,20.67,3.97,25.1.56,5.51,1.23,9.88,1.56,10.29.64.74,2,1.15,3.41.97,1.79-.2,9.07-1.15,10.06-1.31,1.56-.23,2.07-1.84,1.02-3.07-.56-.64-.74-.69-2.46-.67-1.02.03-2.79.2-3.94.41-1.15.2-2.69.44-3.43.54l-1.33.15-.15-1.23c-.08-.69-.31-2.38-.51-3.79s-.44-3.48-.51-4.61c-.18-2.13-2.1-14.42-2.94-18.95-.85-4.38-1.77-9.42-1.92-10.6-.1-.61-.41-1.33-.67-1.59-.61-.61-1.82-.61-2.38,0Z"/>
        <path class="cls-1" d="m490.94,307.79c-.36.1-1.2.49-1.92.85-.87.44-1.54.61-2.1.54-.59-.1-.95.03-1.36.44-.56.56-.59.69-.41,3.94.15,3.18.03,7.53-.67,20.13-.31,5.89-.23,6.45.85,6.79.85.28,1.74-.08,2.13-.87.41-.74.77-3.35,1.08-7.4l.18-2.36h.92c1.2,0,3.35-.64,4.99-1.46,1.56-.79,4.12-3.2,4.79-4.48,1.31-2.54,1.64-3.87,1.64-6.35,0-2.25-.05-2.56-.92-4.38-.51-1.05-1.31-2.36-1.74-2.87-1.59-1.79-5.56-3.15-7.45-2.51Zm4.15,4.25c2.38,1.56,3.1,5.79,1.56,9.12-1.41,3.05-3.2,4.46-6.43,5.04-.74.13-1.38.15-1.46.08-.05-.1-.08-3.35-.05-7.25l.05-7.07,1.64-.51c1.92-.56,3.15-.41,4.69.59Z"/>
        <path class="cls-1" d="m475.6,310.87c-.64.64-.97,1.92-1.2,4.64-.15,2.02-.31,2.48-2.2,6.56-3.46,7.43-4.56,8.02-5.68,3-.49-2.13-.51-5.38-.13-9.91.31-3.64.15-4.25-1.02-4.25-1,0-1.49.64-1.92,2.56-1.61,7.09-.9,14.67,1.61,17.21,2.38,2.36,5.84,1.08,7.86-2.92l.69-1.36.31,1.82c.54,3.02,1.36,4.02,3.07,3.59.85-.2,1.02-1.05.64-3.07-.23-1.23-.23-3.3-.03-8.86.15-3.97.33-7.32.41-7.43.18-.28-.33-1.61-.72-1.84-.54-.33-1.18-.23-1.69.28Z"/>
        <path class="cls-1" d="m425.18,313.48c-1.43.72-2.41,1.92-3.79,4.71-1.38,2.79-1.72,4.46-1.59,8.17.1,3.38.49,4.4,2.56,6.58,1.87,1.95,3.82,2.84,6.5,3,2.84.15,3.61-.15,5.48-2.18,1.82-2,2.36-3.33,1.77-4.4-.28-.49-.61-.69-1.31-.74-.85-.08-1.02.03-2.28,1.59-1.69,2.02-2.28,2.33-3.92,1.95-1.69-.38-2.46-.82-3.59-2.05-.9-1-1.43-1.97-1.43-2.64,0-.18.77-.67,1.72-1.08,2.36-1.02,4.92-3.46,6.02-5.74,1.43-2.84,1.08-5.56-.9-7.04-1.08-.79-3.79-.87-5.25-.13h0Zm3.46,3.71c.44,1.18-2.1,4.87-4.05,5.89q-.97.49-.72-.74c.31-1.41,1.59-3.99,2.38-4.87.74-.79,2.13-.95,2.38-.28Z"/>
        <path class="cls-1" d="m411.09,316.32c-.41.41-1.38,3.05-3.15,8.45-1.43,4.35-2.66,7.94-2.77,7.99-.1.08-.61-1.36-1.13-3.2-1.05-3.71-3.1-8.78-4.51-11.11-.9-1.46-.97-1.54-1.95-1.54-.82,0-1.08.13-1.38.67-.36.64-.33.82.28,2.43,2.07,5.4,3.07,8.37,4.17,12.52,1.43,5.45,2.07,6.89,3.35,7.48.82.41.97.41,1.59.05.38-.2.92-.74,1.23-1.18,1.23-1.84,7.71-20.92,7.4-21.84-.44-1.36-2.13-1.74-3.15-.72Z"/>
        <path class="cls-1" d="m383.64,317.78c-1.95.61-3.28,1.82-4.71,4.2-1.66,2.79-2.1,6.66-1.18,10.27.67,2.61,1.59,4.25,3.51,6.33,1.95,2.07,3.84,3,6.48,3.23,1.56.13,1.92.08,3.18-.54,1.1-.54,1.64-1.02,2.46-2.25,1.18-1.77,1.33-2.97.51-3.79-.56-.56-1.72-.67-2.33-.18-.2.18-.77.85-1.23,1.51-.77,1.18-.87,1.23-2,1.23-.69,0-1.66-.23-2.33-.54-1.18-.59-2.79-2.41-3.38-3.82-.33-.79-.31-.85.54-1.49.49-.36,1.77-1.54,2.87-2.64,2.13-2.15,3.28-4.1,3.76-6.56.28-1.25.26-1.49-.31-2.59-.44-.9-.87-1.33-1.74-1.77-1.31-.67-3.12-.92-4.1-.61Zm2.15,4.02c1.31.51-1,4.23-4.05,6.5-.46.36-.46.31-.31-.77.33-2.1.95-3.53,1.97-4.71,1-1.13,1.51-1.36,2.38-1.02Z"/>
      </g>
      <g>
        <path class="cls-1" d="m315.31,414.83c-2.18.59-4.05,2.13-5.1,4.2-1.41,2.84-3.64,11.98-7.71,31.68-.59,2.82-1.51,7.14-2.05,9.6-2.33,10.37-6.17,29.32-7.55,37.26-.36,2.1-1.18,6.43-1.79,9.6-.61,3.18-1.59,8.76-2.18,12.42-.59,3.66-1.59,9.71-2.23,13.44-2.43,14.29-3.43,21.51-3.92,27.91-.15,2.05-.38,4.74-.51,6.02-.13,1.25-.26,3.87-.26,5.76,0,3.89.38,5.92,1.46,7.55.95,1.43,3.82,4.38,5.2,5.33.64.44,1.92,1.51,2.87,2.38,1.79,1.66,4.99,4.15,6.07,4.71.36.18,2.13.82,3.97,1.46,2.56.85,4.38,1.28,7.71,1.74,5.76.85,12.32,2.05,16.24,2.97,3.71.87,11.93,2.36,15.39,2.79,1.33.15,3.87.56,5.63.9,1.77.33,3.66.67,4.23.74.56.08,3.28.49,6.02.9,8.04,1.23,10.86,1.51,13.44,1.28,5.76-.54,9.32-1.97,12.24-4.94,2.89-2.94,4.17-6.15,6.66-16.54,2.87-11.96,3.18-13.42,5.04-23.3,2.18-11.6,2.79-14.62,4.1-20.61.56-2.54,1.43-7.04,1.92-9.99.51-2.97,1.38-7.91,1.95-11.01.54-3.1,1.28-7.61,1.64-9.99.56-3.97,1.41-8.83,3.69-21.64.85-4.64,1.74-9.09,3.71-18.31,1.05-4.97,1.95-10.12,2.71-15.52.36-2.43.26-3.43-.9-8.81-.85-4.07-1.82-7.35-2.56-8.83-.85-1.66-3.99-4.53-5.2-4.76-.54-.1-1.41-.33-1.97-.54-2.38-.85-10.14-2.69-14.37-3.41-7.38-1.25-9.94-1.77-15.08-3-2.66-.61-7.4-1.59-10.5-2.13-5.86-1.05-9.17-1.74-14.98-3.2-8.14-2.05-24.81-4.51-30.06-4.46-1,0-2.33.15-2.97.33Zm8.58,2.71c6.17.59,18.13,2.56,24.51,4.07,4.38,1.05,10.12,2.18,14.8,2.97,2.18.36,6.68,1.28,9.99,2.05,3.3.77,9.24,1.97,13.19,2.66,9.4,1.69,16.95,3.61,18.72,4.76.72.46,1,2.07.79,4.2-.61,5.74-1.05,8.83-1.72,12.19-1.69,8.58-2.64,13.83-3.35,18.44-.41,2.66-1.02,6.3-1.36,8.07-.36,1.77-.82,4.23-1.05,5.51-.23,1.25-.74,3.64-1.15,5.25-.41,1.61-1.02,4.66-1.38,6.79-.79,4.56-2.1,11.47-3.64,19.21-.61,3.1-1.36,7.09-1.64,8.91-.28,1.79-.92,5.17-1.41,7.55-1.2,5.66-1.82,9.01-2.28,12.73-.23,1.69-1.2,7.07-2.2,11.96-.97,4.87-1.97,10.01-2.18,11.4-.49,3.07-1.13,6.02-2.56,11.86-.61,2.46-1.36,5.58-1.64,6.91-.77,3.46-2.07,6.09-3.61,7.27-2.79,2.13-7.32,3.43-11.01,3.12-5.58-.49-12.65-1.51-20.23-2.94-7.04-1.36-10.86-2.05-12.04-2.23-.64-.08-2.64-.49-4.48-.9-1.82-.44-5.92-1.23-9.07-1.79-3.18-.56-6.79-1.25-8.04-1.54s-2.94-.61-3.74-.74c-8.09-1.28-17-3.41-18.62-4.46-.95-.59-1.82-1.79-2.3-3.15-.41-1.15-.46-6.99-.1-10.45.13-1.28.36-4.05.51-6.15.38-5.15,1.79-15.26,3.33-24.2.69-4.02,1.51-8.91,1.79-10.88.69-4.66,2.46-15.24,2.94-17.59.23-1.02,1.15-5.89,2.05-10.83,1.92-10.52,5.2-26.84,7.17-35.72.74-3.46,2.02-9.4,2.82-13.19,3.51-16.7,5.92-26.58,7.07-28.91,1.1-2.25,4.1-2.84,11.11-2.2Z"/>
        <path class="cls-1" d="m329.32,432.76c-1.59.44-3.05,1.84-3.99,3.87-.87,1.84-2.3,7.14-3.23,11.91-.72,3.64-1.51,7.02-2.54,10.93-.36,1.28-.82,3.66-1.05,5.25-.23,1.59-.59,3.53-.77,4.3-.33,1.31-1.05,4.94-2.54,12.93-.36,1.82-.69,4.4-.77,5.74l-.15,2.41.97.92c1.72,1.59,3.35,2.23,8.89,3.33,2.82.56,6.68,1.38,8.58,1.82,1.89.46,5.35,1.2,7.68,1.66,2.33.49,7.04,1.51,10.5,2.3,17.23,3.92,22.1,4.66,23.79,3.59.54-.33,1.46-2.02,2.15-3.97.85-2.43,1.1-3.38,1.72-6.89.28-1.56.97-4.64,1.56-6.86,1.13-4.33,2.94-12.88,3.97-18.51.61-3.43,1.64-8.35,2.74-13.06.41-1.79.56-3.12.51-5.07-.05-3.53-.46-4.23-3.46-5.66-4.3-2.05-7.94-2.94-25.68-6.43-3.51-.69-8.12-1.61-10.24-2.02-2.1-.44-5.63-1.08-7.81-1.46-2.18-.36-4.76-.82-5.71-1.02-2.1-.44-3.48-.44-5.12,0Z"/>
        <path class="cls-2" d="m366.78,450.81c-.33.28-2,1.2-3.71,2.1-6.33,3.28-17,9.35-19.64,11.14-1.51,1.05-3.89,2.59-5.25,3.46-1.38.85-3.15,2.07-3.97,2.71-.95.74-1.61,1.1-1.87,1-.23-.08-.38-.31-.33-.49.2-.56,3.02-2.69,5.94-4.46,1.56-.95,3.66-2.25,4.64-2.89,4.74-3.18,15.49-9.19,19.72-11.09,1.69-.74,3.35-1.49,3.71-1.66,1.05-.46,1.49-.36.77.18Zm4.1,6.81c0,.46-12.7,7.3-13.57,7.3-.97,0,2.02-1.82,8.32-5.04,4.28-2.18,5.25-2.59,5.25-2.25Zm-20.49,11.47c-.2.2-3.56,2.33-7.43,4.76-3.87,2.41-7.89,4.97-8.89,5.68-1.31.92-2,1.25-2.3,1.13-.41-.15-.36-.26.31-.79,3.33-2.71,17.23-11.09,18.44-11.11.13,0,.08.15-.13.33Z"/>
        <path class="cls-1" d="m314.69,509.55c-.44.33-1.74,5.58-2.61,10.68-.2,1.33-.44,2.46-.49,2.51-.15.15-5.94-.2-9.88-.61l-1.66-.15-.54,1.64c-.31.9-.85,3.43-1.2,5.66-.61,3.64-.64,4.1-.31,4.89.44,1.02.61,1.08,3.74,1.28,1.23.08,3.12.41,4.33.79,1.2.36,2.43.64,2.77.64.59,0,.61.05.46,1.46-.79,8.19-.85,10.81-.18,11.55.51.59,2.74,1.08,4.92,1.08.82,0,2.07.1,2.82.26,1.51.28,3.2-.05,3.46-.72.08-.2.26-1.43.38-2.71.13-1.28.49-3.53.77-4.97.28-1.46.51-2.94.51-3.3v-.64l4.05.2c6.15.33,6.35.33,7.09-.44.92-.9,1.66-4.58,1.66-8.25,0-2.59-.03-2.79-.64-3.38-.33-.36-.87-.64-1.2-.64s-2.33-.31-4.48-.69l-3.89-.72.13-1.02c.1-.56.61-3.18,1.15-5.79,1.1-5.25,1.18-5.92.64-6.45-.54-.51-3.35-1.18-6.25-1.46-1.36-.13-3.05-.41-3.76-.64-.69-.2-1.28-.38-1.31-.38,0,0-.2.15-.46.33Zm5.92,3.38c1.77.2,3.28.41,3.33.49.05.05-.28,2-.79,4.3-1.46,6.89-1.59,7.99-1.1,8.73.28.46.74.69,1.51.79.61.1,1.84.33,2.77.54,3.87.79,4.43.9,5.4.9h1v1.33c0,1.23-.61,5.79-.87,6.5-.08.2-.46.23-1.23.1-.61-.13-3.05-.33-5.43-.49-5.74-.38-5.17-.97-6.17,6.38-.2,1.61-.38,3.69-.38,4.64v1.72l-1.72-.1c-4.69-.31-5.97-.41-6.07-.56-.05-.1,0-1,.13-1.97.1-1,.33-3.59.46-5.76.31-4.64.15-5.68-.95-6.09-1.13-.44-6.17-1.36-8.25-1.51l-1.95-.15.46-3.35c.26-1.84.54-3.71.59-4.15l.13-.77,2.25.08c1.23.05,3.53.28,5.1.51,3.25.46,3.99.33,4.46-.87.15-.41.67-2.64,1.13-4.99.79-3.87,1.25-5.94,1.54-6.79.08-.23.28-.26.77-.08.36.13,2.13.44,3.89.64Z"/>
        <path class="cls-1" d="m367.34,533.16c-3.15.97-5.17,3.79-5.17,7.2,0,2.28.41,3.48,1.61,4.87,2.79,3.15,7.38,3.2,10.27.1,1.64-1.77,2.2-3.05,2.2-5.22,0-2.51-.41-3.64-1.92-5.2-1.9-1.95-4.38-2.56-6.99-1.74Zm4.02,2.56c1.66.85,2.79,3.12,2.46,4.97-.64,3.51-4.58,5.61-7.35,3.92-3.28-2.02-2.74-6.91.95-8.83.97-.51,3-.54,3.94-.05Z"/>
        <path class="cls-1" d="m355.34,517.16c-3.15.97-5.17,3.79-5.17,7.2,0,2.28.41,3.48,1.61,4.87,2.79,3.15,7.38,3.2,10.27.1,1.64-1.77,2.2-3.05,2.2-5.22,0-2.51-.41-3.64-1.92-5.2-1.9-1.95-4.38-2.56-6.99-1.74Zm4.02,2.56c1.66.85,2.79,3.12,2.46,4.97-.64,3.51-4.58,5.61-7.35,3.92-3.28-2.02-2.74-6.91.95-8.83.97-.51,3-.54,3.94-.05Z"/>
        <path class="cls-1" d="m414.26,425.84c-.36.59-.36.72.13,1.82.28.64.74,1.49,1,1.87.28.38,1,1.66,1.59,2.84.85,1.66,1.18,2.74,1.56,4.97.49,2.84.92,3.76,1.77,3.76.72,0,1.23-.82,1.54-2.51.49-2.69-.18-5.3-2.13-8.5-2.69-4.46-4.43-5.79-5.45-4.25Z"/>
        <path class="cls-1" d="m426.68,426.66c-.26.31-.26.56-.03,1.2.28.79.97,4.58,1.13,6.2.08.87.92,1.18,1.43.56.85-1,.79-6.45-.08-7.78-.46-.69-1.92-.82-2.46-.18Z"/>
        <path class="cls-1" d="m272.65,574.8c-.69.77-.85,4.92-.23,6.5.92,2.43,2.69,4.1,4.17,3.92.97-.1,1.08-1.2.23-2.3-1-1.33-1.49-2.71-1.74-5.2-.36-3.25-1.2-4.28-2.43-2.92Z"/>
      </g>
    </g>
  </g>
</svg>