<?xml version="1.0" encoding="UTF-8"?>
<svg id="Layer_2" data-name="Layer 2" xmlns="http://www.w3.org/2000/svg" viewBox="0 0 781 908.53">
  <defs>
    <style>
      .cls-1 {
        fill: #fff;
      }

      .cls-1, .cls-2 {
        stroke-width: 0px;
      }

      .cls-2 {
        fill: #ed5123;
      }
    </style>
  </defs>
  <g id="Layer_1-2" data-name="Layer 1">
    <rect class="cls-1" width="781" height="908.53"/>
    <g>
      <path class="cls-2" d="m564.22,392.81c-4.08-.34-6.99-1.7-9.08-5.57-.29-.73-.33-.49-.75-2.15-.11-.65-.25-1.39-.86-1.76-1.31-1.08-3.12,0-3.36,1.54-.01.36-1.76,3.61-3.04,5.19.31-.12-4.41,4.57-4.71,4.4-1.26,1.06-3.04,1.41-4.18,2.55-1.52,1.76.86,4.45,2.82,3.21.22-.09.43-.23.65-.33,1.94,1.27,4.07,2.23,4.68,2.99,2.93,2.8,4.38,5.45,4.69,8.79,0,.56.01,1.12.05,1.68,0,.04.01.09.02.13,0,0,0,0,0,.01h0c.05.8.41,1.58,1.14,1.99,1.08.63,2.51.26,3.15-.82.23-.41.3-.85.29-1.3,0,0,0,0,.01,0-.09-1-.09-2-.01-3,.15-2.03.92-4.93,2.41-7.39.72-1.67,3.99-4.93,4.37-5.13.87-.84,2.32-1.16,2.81-2.32.49-.98-.07-2.35-1.1-2.71Zm-9.94,7.77c-.64,1.06-1.18,2.19-1.63,3.34-.72-1.17-1.61-2.37-2.76-3.73-1.13-1.2-2.4-2.37-3.68-3.23,2.36-1.98,4.4-4.39,5.84-6.71.1.17.19.34.3.5,1.34,2.3,3.74,3.93,6.07,4.92-1.6,1.42-3.01,3.07-4.14,4.89Z"/>
      <path class="cls-2" d="m537.9,354.06c-1.27-.06-1.19-.03-3.2-.64-4.28-1.39-7.92-5.95-8.63-10.72.01-.13.03-.26.04-.39-.03,0-.06,0-.08,0-.03-.29-.1-.57-.11-.86-.51-1.45-2.57-1.82-3.62-.72-.97,1.11-.73,2.79-1.27,4.12-.09.39-.67,2-.88,2.6-2.02,4.89-5.06,7.66-7.89,10-1.62,1.88.91,4.74,3,3.42.06-.05.12-.1.18-.15.59.39,1.29.77,1.96,1.3,1.34.95,2.25,1.71,3.48,4.09.66.97,1.11,3.67,1.1,5.32-.5,1.61-.97,3.29-.4,4.63.74,1.33,2.7,1.57,3.76.48.31-.3.48-.67.6-1.06,0,0,0,0,.01,0,0-.03.01-.06.02-.09.1-.35.17-.72.21-1.1,1.79-8.82,5.83-15.51,11.57-15.92.04,0,.05-.02.08-.02,1.06.03,2.13-.2,2.53-1.31.43-2.23-.77-2.97-2.47-2.98Zm-13.21,9.7c-1.22-2.63-3.05-4.76-5.48-6.41,1.98-2.15,3.6-4.62,4.79-7.28.29.49.59.94.93,1.32,1.55,2.12,3.62,3.86,5.96,5.07-.01,0-.03.02-.04.03-2.73,1.81-4.7,4.4-6.15,7.28Z"/>
      <g>
        <path class="cls-2" d="m338.35,352.53c-1.81-2.1-3.89-4.09-5.43-6.37-.63-.93-1.18-2.01-.99-3.12.37-2.15,3.1-2.81,5.28-3,21.48-1.84,42.95-3.67,64.43-5.51,5.47-.47,24.04-4.89,26.62.03,3.11,5.94-5.98,13.4-1.96,19.89,9.21-3.35,19.08-5.65,28.78-4.29,9.7,1.36,19.23,6.92,23.3,15.83,5.28,11.56.89,26.58,8.59,36.69,1.61,2.12,3.7,3.9,4.88,6.29,1.18,2.38,1.1,5.74-1.11,7.21-1.67,1.11-3.9.78-5.8.16-6.95-2.23-12.78-7.71-15.45-14.5-3.81-9.7-1.76-22.1-9.22-29.36-6.12-5.95-15.86-5.54-24.29-4.23,6.09,17.96,12.27,36.76,9.51,55.53-1.98,13.47-8.47,25.89-16.18,37.1-2.22,3.23-4.63,6.46-7.89,8.63-3.86,2.57-8.58,3.44-13.16,4.15-14.45,2.23-29.54,3.35-43.43-1.22-18.64-6.13-33.21-22.56-38.29-41.51-5.08-18.95-.99-39.88,9.79-56.27,3.09-4.69,6.88-9.81,5.82-15.32-.51-2.63-2.02-4.78-3.78-6.82Zm41.27,108.97c11.1-.12,22.29-1.59,33.24-3.41,4.04-.67,8.08-1.39,11.97-2.68,1.46-.48,2.92-1.07,4.09-2.07,1.24-1.06,2.06-2.52,2.85-3.94,3.38-6.07,6.78-12.21,8.66-18.9,3.8-13.51,1.05-27.91-1.92-41.62-1.33-6.15-2.75-12.43-5.85-17.97-.53-.94-1.26-2.76-2.32-3.21-1.2-.51-3.33.02-4.6.08-3.68.18-7.37.37-11.05.57-1.84.1-3.68.21-5.52.32-2.62.16-5.23.32-7.85.48-1.92.12-3.83.24-5.75.36-7.64.48-15.28.96-22.88,1.84-9.94,1.15-19.91,2.99-29.89,2.16-.93-.08-1.92-.17-2.74.27-.7.37-1.16,1.06-1.58,1.72-7.3,11.54-11.49,25.13-11.26,38.78.23,13.65,4.99,27.29,13.83,37.69,1.24,1.46,2.59,2.88,4.22,3.89,1.46.9,3.11,1.44,4.75,1.92,9.63,2.83,19.58,3.82,29.6,3.71Zm-36.27-109.26c.54.21,1.11.36,1.7.45,1.6.24,3.23-.02,4.84-.26,18.77-2.9,37.8-4.16,56.79-3.77,4.19.09,8.54.23,12.39-1.43,2.12-.91,5.41-3.25,5.81-5.75.89-5.52-1.02-3.35-5.3-4.15-8.03-1.5-19.31,1.49-27.5,2.13-18.94,1.46-37.87,2.93-56.81,4.39,2.05,3.37,4.52,7.04,8.08,8.39Zm6.55,108.38c.55,1.11,1.3,2.12,2.2,2.96,2.9,2.7,7.04,3.48,10.96,4.03,17.68,2.45,35.72,2.23,53.34-.61,2.06-.33,4.18-.72,5.94-1.84,1.65-1.05,4.23-4.31,1.71-5.26-1.81-.68-8.07,2.02-10.14,2.44-7.03,1.42-14.18,2.3-21.34,2.65-14.33.7-28.78-.76-42.67-4.36Z"/>
        <path class="cls-2" d="m330.64,410.88c0-.11-.01-.23-.02-.34,22.34-1.2,44.68-2.4,67.02-3.61,11.17-.6,22.34-1.23,33.52-1.8,4.98-.26,6.51-.51,7.85,4.87,1.12,4.5.28,9.5-.79,13.91-1.79,7.36-4.53,14.48-8.14,21.14-1.38,2.55-2.98,5.13-5.46,6.65-1.96,1.2-4.28,1.62-6.55,1.97-21.48,3.31-43.36,2.34-65.06,1.36-1.58-.07-3.23-.16-4.62-.93-1.18-.66-2.05-1.75-2.85-2.83-8.69-11.67-13.92-25.88-14.89-40.4Z"/>
      </g>
      <path class="cls-2" d="m456.38,507.87c-.39-1.74-.71-3.5-1.18-5.22-1.3-4.67-1.41-9.42-1.2-14.22.18-4.32.89-8.55,1.8-12.75.44-2.04,1.86-3.55,3.51-4.55,4.62-2.77,9.5-5,14.76-6.31,2.61-.65,5.16-1.58,7.79-2.02,8.55-1.44,17.01-.97,25.35,1.5,3.39,1,6.72,2.11,9.61,4.24,2.36,1.74,4.6,3.59,6.23,6.09.78,1.19,1.18,2.45,1.28,3.85.14,1.84.39,3.67.53,5.52.11,1.49.14,2.98.19,4.47.02.58,0,1.16,0,1.86.8-.14,1.38-.23,1.95-.34,5.67-1.1,11.15,1.63,13,7.93.43,1.48.6,3.04.9,4.56.09.46.23.91.31,1.36.09.54.15,1.08.23,1.71,1.2.72,2.53,1.49,3.83,2.31,4.08,2.56,7.48,5.89,10.7,9.43,5.1,5.6,5.73,13.66,2.71,19.86-3.63,7.45-8.93,13.38-15.41,18.33-4.08,3.12-8.93,4.79-13.73,6.44-7.87,2.7-15.98,4.44-24.2,5.67-7.65,1.15-15.33,1.19-23.04.93-5.39-.18-10.71-.71-16.03-1.5-10.62-1.58-19.77-6.17-27.65-13.33-3.93-3.58-6.98-7.88-8.75-12.94-1.45-4.14-2.35-8.39-1.62-12.83.39-2.36,1.49-4.38,2.81-6.32,2.02-2.98,4.77-5.15,7.73-7.1,4.47-2.94,9.24-5.24,14.37-6.77,1.1-.33,2.19-.66,3.25.11-.24.93-.84,1.38-1.76,1.74-4.23,1.64-8.48,3.22-12.31,5.74-3.1,2.04-6.05,4.19-8.41,7.15-3.1,3.89-3.74,8.21-2.66,12.84,1.2,5.12,4.03,9.38,7.65,13.14,3.51,3.65,7.59,6.54,11.85,9.21,3.37,2.12,6.97,3.65,10.97,4.13,1.3.16,2.6.35,3.89.59,5.76,1.08,11.54,1.83,17.41,2.13,8.1.4,16.11,0,24.07-1.5,12.09-2.29,23.81-5.72,34.71-11.57,1.05-.56,2.22-1,3.08-1.77,4.68-4.17,8.5-9.01,11.06-14.79,2.49-5.62,1.42-10.71-2.28-15.41-2.42-3.07-5.46-5.5-8.33-8.11-.93-.84-1.97-1.55-2.99-2.28-.46-.33-1-.55-1.58-.86-.25.49-.38.82-.57,1.11-.73,1.15-1.28,2.5-2.25,3.39-3.34,3.04-7.03,5.5-11.57,6.49-4,.87-7.76,2.45-11.14,4.77-1.91,1.31-2.81,3.29-2.88,5.44,2.96.93,5.77,1.7,8.5,2.69,3.95,1.43,5.44,6.26,2.87,9.57-1.41,1.82-3.11,3.46-4.86,4.97-2.08,1.8-4.49,3.07-7.1,4.07-6.81,2.6-13.83,3.76-21.07,3.25-3.75-.26-7.49-.76-11.19-1.44-4.39-.81-8.54-2.36-11.87-5.51-.8-.76-1.7-1.7-1.96-2.71-.91-3.5-.66-6.91,1.95-9.72,1.16-1.25,2.49-2.33,3.86-3.58,0,.03.02-.16-.04-.32-.09-.28-.21-.56-.36-.82-1.84-3.29-3.76-6.52-6.27-9.36-1.11-1.25-2.17-2.55-3.2-3.86-1.98-2.54-4.05-5.03-4.77-8.31-.04-.18-.33-.31-.5-.47Zm65.26-20.09c-1.06.47-1.82.78-2.54,1.15-4.55,2.28-9.24,4.2-14.12,5.65-3.91,1.17-7.95,1.62-12,1.92-6.83.51-13.6.33-20.25-1.57-5.09-1.46-9.97-3.34-14.06-6.85-.29-.25-.67-.39-1.14-.66-.11.57-.24.97-.24,1.36-.04,1.97-.22,3.95-.03,5.9.47,4.65,1.32,9.2,3.66,13.37,1.8,3.21,4.19,5.94,6.48,8.77,2.39,2.97,4.81,5.97,6.76,9.24,2.64,4.43,4.36,9.29,5.07,14.45.18,1.29.8,1.92,2.09,2.27,3.34.92,6.74.86,10.14.85,4.87-.02,9.63-.72,14.27-2.26,1.48-.49,2.14-1.28,2.13-2.83-.01-1.85.18-3.7.21-5.55.2-9.48,2.67-18.39,6.65-26.93,1.44-3.08,3.12-6.06,4.48-9.17.95-2.17,1.6-4.49,2.3-6.76.19-.63.09-1.36.14-2.36Zm-61.34-2.56c1.29-4.4,4.28-6.63,7.92-8.16.94-.39,1.87-.81,2.85-1.08,2.71-.74,5.42-1.45,8.15-2.11,5.67-1.35,11.47-1.52,17.25-1.9,4.78-.32,9.27.62,13.69,2.19,4.6,1.63,7.34,4.94,8.48,9.64.09.39.21.77.31,1.13.24,0,.38.04.47,0,3.09-1.84,4.3-6.4,2.38-9.42-1.23-1.94-2.3-4.1-4.61-5.09-.91-1.46-2.4-2.11-3.91-2.64-9.69-3.36-19.59-4.9-29.79-3.07-3.45.62-6.84,1.65-10.22,2.66-4.48,1.33-8.68,3.29-12.73,5.66-3.18,1.86-3.78,4.69-3.66,7.95.01.38.21.83.47,1.13.86.98,1.78,1.91,2.94,3.13Zm51.82,47.56c-.08.58-.17,1.1-.21,1.62-.16,2.14-.35,4.29-.46,6.43-.06,1.23-.57,2-1.74,2.42-.78.28-1.52.68-2.26,1.06-3.8,2-7.83,3.29-12.14,3.44-4.36.15-8.73-.04-13.02-.94-1.61-.34-3.17-1.02-4.67-1.73-1.4-.66-2.27-1.8-2.56-3.44-.31-1.76-.86-3.47-1.34-5.2-.12-.43-.38-.82-.64-1.36-.93.49-1.75.84-2.49,1.31-3.44,2.21-3.65,7.1-.4,9.6,1.91,1.47,4.03,2.53,6.31,3.33,5.85,2.06,11.95,2.29,18.03,2.26,4.91-.02,9.69-1.29,14.36-2.82,3.33-1.09,6.46-2.56,9.08-4.9,1.32-1.18,2.57-2.5,3.59-3.93,1.19-1.66.9-3.33-.7-4.6-2.52-2-5.4-2.93-8.76-2.56Zm12.67-40.29c-.21,1.04-.41,2.14-.65,3.24-.24,1.13-.51,2.25-.81,3.54.91-.13,1.54-.23,2.18-.3,2.33-.23,3.77.62,4.61,2.8.26.66.42,1.38.49,2.08.27,2.64-.71,4.22-3.22,5.09-1.18.41-2.4.75-3.63.95-1.81.3-3.43.98-4.98,1.92-2.84,1.72-3.58,4.53-4.18,7.52.31.03.45.09.54.04.44-.19.86-.4,1.29-.61,3.34-1.62,6.78-2.93,10.49-3.52,3.33-.53,6.14-2.21,8.79-4.22,1.65-1.25,2.42-2.91,2.52-4.93.11-2.4-.2-4.74-.86-7.07-1.69-5.98-7.99-7.63-12.58-6.53Zm-5.98,15.94c2.62-.63,4.82-1.07,6.97-1.7,1.96-.57,2.39-1.57,1.83-3.53-.31-1.07-.9-1.81-2.08-1.88-.77-.05-1.54-.1-2.3,0-.42.05-1,.31-1.18.64-1.08,2.03-2.07,4.1-3.24,6.47Z"/>
      <g>
        <path class="cls-2" d="m325.23,507.22c.62,0,1.17.01,1.72,0,1.63-.05,3,.52,4.17,1.63.46.43.94.83,1.43,1.23,2.57,2.15,3.35,5.49,1.95,8.49-1.6,3.42-3.95,5.88-7.95,6.35-1.37.16-2.72.56-4.2.88-.39,1.9-.78,3.79-1.23,5.95.88.15,1.59.3,2.31.4,4.15.59,7.5,2.53,9.97,5.93,1.05,1.45,1.51,3.09,1.68,4.88.63,6.51-2.3,11.31-7.14,15.21-5.43,4.37-11.59,7.52-17.91,10.33-8.44,3.76-17.4,5.56-26.52,6.52-5.83.61-11.69,1.2-17.54,1.23-7.46.03-14.97-.14-22.39-.89-10.68-1.08-20.49-4.8-29.03-11.48-2.19-1.71-4.3-3.57-6.23-5.57-2.89-2.99-4.57-6.71-5.26-10.77-.72-4.21-.06-8.37,1.58-12.31,1.69-4.04,6.23-6.6,10.45-6.15.07-.51.26-1.05.2-1.55-.28-2.56-.45-5.15-.99-7.66-.6-2.83-1.02-5.61-.71-8.51.19-1.72.21-3.49.03-5.22-.38-3.76,1.07-6.53,4.22-8.46,1.6-.98,3.21-2.02,4.93-2.75,4.69-1.98,9.43-3.87,14.18-5.69,4.8-1.83,9.93-2.23,14.92-3.25,8-1.62,16.11-1.48,24.21-1.49,3.84,0,7.68.07,11.52.25,1.51.07,3.02.43,4.5.81,3.24.83,6.45,1.79,9.69,2.63.86.22,1.8.28,2.7.27,1.79-.03,3.41.48,5.02,1.22.99.46,2.11.65,3.17.98,2.19.69,4.43,1.27,6.56,2.12,1.62.65,3.02,1.72,3.99,3.26.61.97,1.07,1.96.8,3.15-.03.14-.07.28-.05.41.4,2.44.8,4.89,1.25,7.59Zm-107.84,3.28c.05.85.06,1.32.11,1.79.29,2.7.81,5.4.86,8.11.13,6.85,1.88,13.06,6.3,18.44,3.44,4.2,7.27,7.85,12.07,10.53,5.33,2.97,10.75,5.59,16.73,7.03,8.07,1.94,16.25,2.8,24.51,2.52,6.26-.22,12.33-1.5,17.53-5.42,1.11-.83,2.37-1.48,3.59-2.15,3.5-1.91,6.87-4,9.64-6.94.32-.34.76-.64,1.2-.8,1.43-.5,1.95-1.7,2.42-2.96.46-1.23.98-2.44,1.42-3.68,1.37-3.95,2.97-7.85,3.99-11.89.98-3.91,1.41-7.97,1.97-11.97.34-2.42.47-4.86.65-7.3.04-.56-.11-1.13-.2-1.97-1.13.62-1.92,1.04-2.71,1.48-5.28,2.92-10.87,5.09-16.68,6.67-8.32,2.26-16.85,3.22-25.41,3.95-9.55.81-19.11.59-28.67.4-7.79-.15-15.41-1.43-22.82-3.91-2.04-.68-4.12-1.23-6.49-1.94Zm-2,20.15c-1.11.47-2,.87-2.9,1.23-3.07,1.22-4.77,3.53-5.33,6.72-.2,1.17-.32,2.35-.48,3.53-.74,5.47,1.19,10.13,4.89,13.93,6.52,6.69,14.33,11.27,23.5,13.44,4.85,1.14,9.73,1.85,14.72,1.88,6.28.04,12.6.63,18.84.17,9.45-.69,18.9-1.49,28.18-3.84,10.42-2.63,19.71-7.37,28.18-13.82,1.62-1.24,2.96-2.98,4.09-4.71,1.88-2.87,1.78-7.06,0-9.29-2.36-2.97-5.6-3.9-9.08-3.98-.2.21-.25.26-.29.31-.1.18-.2.37-.28.56-3.6,8.35-8.91,15.12-17.49,18.84-.38.17-.72.44-1.09.62-3.13,1.54-6.13,3.47-9.42,4.51-4.44,1.4-9.08,2.18-13.66,3.11-4.7.95-9.46.57-14.2.39-1.94-.07-3.9-.3-5.8-.68-6.96-1.37-13.52-3.87-19.89-6.99-6.91-3.39-12.85-7.79-17.14-14.3-2.21-3.35-4.28-6.71-5.02-10.72-.05-.26-.18-.51-.32-.91Zm105.23-32c-1.22-.85-1.94-1.54-2.79-1.91-1.53-.66-3.11-1.27-4.73-1.66-2.58-.61-5.19-1.08-7.81-1.5-8.96-1.41-17.92-2.87-26.9-4.11-6.65-.92-13.4-1.37-20.06-.49-8.92,1.18-17.83,2.65-26.13,6.46-3.61,1.66-7.24,3.29-10.8,5.05-1.1.55-2.13,1.36-3,2.25-1.36,1.4-.95,3.24.78,4.14.37.19.76.35,1.16.47,2.94.89,5.88,1.77,8.83,2.63.32.09.66.1.96.15,1.2-3.56,1.04-3.06,4.28-4.78,1.9-1.01,3.92-1.95,6-2.44,5.7-1.34,11.42-2.82,17.21-3.49,5.66-.66,11.43-.42,17.15-.54,5.54-.12,11.04.07,16.24,2.34.44.19.95.23,1.41.4,3.04,1.07,6.11,2.1,7.84,5.17.48.86,1.23.98,2.16.66,5.27-1.84,10.56-3.66,15.31-6.68.86-.55,1.64-1.21,2.88-2.13Zm3.35,20.12c1.61-1,3.15-1.95,4.66-2.88-1-2.33-1.56-2.62-4.13-2.33-.74,2.31-.86,3.36-.52,5.21Z"/>
        <path class="cls-2" d="m269.68,455.31c-.35,7.03,2.16,13.09,6.47,18.5,1.06,1.33,1.23,2.09.61,2.77-.58.65-1.22.55-2.77-.5-2.1-1.43-3.83-3.24-5.17-5.41-2.7-4.36-4.27-9.06-4.26-14.24,0-1.32-.12-2.65-.08-3.97.11-4.15,1.45-7.74,4.7-10.55,2.52-2.18,8.83-2.85,11.48-.97,2.22,1.58,3.54,3.45,3.37,6.28-.12,2.05-.87,3.79-2.15,5.33-.99,1.2-1.89,1.38-2.89.73-1.16-.75-1.43-1.66-.93-3.04.31-.85.67-1.7.83-2.58.3-1.68-.53-2.64-2.25-2.8-3.68-.34-6.49,2.15-6.93,6.27-.15,1.38-.02,2.79-.02,4.18Z"/>
        <path class="cls-2" d="m252.3,479.38c-3.06-2.99-3.75-6.69-2.97-10.74.31-1.63.91-3.23,1.51-4.79,1.44-3.71,1.47-7.32-.35-10.95-.97-1.93-1.75-3.96-2.57-5.96-.59-1.42-.39-2.1.68-2.66,1.04-.55,1.93-.36,2.64.86,1.98,3.38,3.82,6.85,4.59,10.73.53,2.65.2,5.29-.71,7.84-.4,1.12-.77,2.25-1.26,3.33-1.49,3.31-1.51,6.6-.16,9.96.59,1.47.39,1.73-1.4,2.38Z"/>
      </g>
    </g>
  </g>
</svg>