<?xml version="1.0" encoding="UTF-8"?>
<svg id="Layer_2" data-name="Layer 2" xmlns="http://www.w3.org/2000/svg" viewBox="0 0 781 908.53">
  <defs>
    <style>
      .cls-1 {
        fill: none;
        stroke: #ed5123;
        stroke-linecap: round;
        stroke-miterlimit: 10;
        stroke-width: 4px;
      }

      .cls-2 {
        fill: #fff;
      }

      .cls-2, .cls-3 {
        stroke-width: 0px;
      }

      .cls-3 {
        fill: #ed5123;
      }
    </style>
  </defs>
  <g id="Layer_1-2" data-name="Layer 1">
    <rect class="cls-2" width="781" height="908.53"/>
    <g>
      <g>
        <path class="cls-3" d="m429.89,678.32c-3.05-12.24-5.79-24.57-8.4-36.91-2.71-12.84-5.3-25.71-7.97-38.55,1.32-1.82,1.41-4.44,1.49-6.59.13-3.52-.24-7.09-.89-10.55-.63-3.37-2.31-10.43-6.21-11.98-.08-.55-.48-1.06-1-1.17-2.48-10.56-5.18-21.06-8.17-31.51-4.12-14.45-8.12-28.98-10.35-43.86-2.13-14.2-2.66-29.25,1.98-43.03.41-1.22.87-2.42,1.38-3.6,1.13-2.45,2.06-5,2.7-7.66,1.62-6.74.64-13.23-.87-19.88-1.54-6.77-3.45-13.47-4.46-20.35-1.43-9.66-.19-19.22,3.96-28.09.44-.93-.09-1.89-1.13-1.97-10.84-.86-18.78,7.62-21.62,17.39-.64,2.2-.99,4.5-1.05,6.78-.07,2.77.53,5.51.59,8.28.11,5.2-.97,10.32-2.87,15.14-.17-1.1-.47-2.17-.82-3.17-2.35-6.61-7.9-12.51-14.32-15.3-3.55-1.54-7.44-2.07-11.21-1.1-4.27,1.1-7.66,4.11-10.24,7.58-6.48-.22-16.12,2.74-15.64,10.18-4.3.66-8.85,2.2-11.56,5.71-2.01,2.6-2.21,5.67-.79,8.34-4.12,2.67-8.06,6.08-9.7,10.85-1.34,3.89-.38,8.02,1.43,11.57,2.2,4.33,5.68,8.01,9.14,11.35,4.1,3.96,8.53,7.55,12.94,11.16,4.26,3.49,8.55,6.96,12.51,10.78,2.94,2.84,6.11,6.08,7.58,9.98,1.34,3.55,2.84,7.04,4.05,10.64,1.41,4.18,2.59,8.43,3.64,12.72,2.2,8.97,3.72,18.1,4.85,27.26,1.09,8.8,1.79,17.66,2.24,26.52.37,7.35.39,14.67.38,22.02-3.09,3.41-3.95,8.63-4.4,13.03-.16,1.54-.25,3.1-.29,4.67-.08.22-.08.47-.01.7-.05,4.18.32,8.38,1.07,12.45.1.57.72.96,1.26.96,1.06,0,2.09-.06,3.09-.22.55,9.21,1.47,18.39,2.96,27.5,1.21,7.41,2.83,14.76,5.05,21.93h69.7Zm-88.15-275.27c3.28-.79,6.76-.06,9.75,1.38,5.93,2.87,11.19,8.74,12.73,15.22.99,4.16-.58,7.58-4.84,8.72-3.99-4.36-7.44-9.25-12.1-12.95-2.44-1.94-4.79-3.73-7.66-5-1.99-.89-4.06-1.49-6.19-1.86,2.19-2.6,4.94-4.69,8.31-5.5Zm20.34,27.13c-.25.48-.5.96-.75,1.44-.04-.36-.11-.7-.24-1.04.34-.12.67-.26.99-.41Zm-40.72-17.59c2.77-1.53,6.1-1.98,9.29-1.76.16.04.32.05.48.04.68.06,1.35.15,2.01.26,11.63,2.06,17.92,12.43,25.51,20.3.67.78-.54,3.17-1.13,3.91-1.47,1.85-4.32,2.02-6.51,2.13-1.39.07-2.57-.19-3.62-1.13-1.39-1.25-2.65-2.6-4.08-3.81-3.96-3.35-7.92-6.82-12.42-9.43-4.17-2.43-8.8-3.8-13.52-4.71-.18-2.59,1.79-4.59,3.99-5.8Zm-14.54,11.56c2.56-2.08,6.13-2.96,9.34-3.33,5.35.99,10.41,2.59,15.03,5.53,2.37,1.51,4.56,3.27,6.72,5.06,2.14,1.77,4.36,3.49,6.3,5.47,1.17,1.19,2.28,2.33,3.9,2.89.8.28,1.66.38,2.53.37.82,1.95,1.63,4.48.72,6.48-.78,1.7-2.74,2.3-4.46,2.47-1.09.11-2.32.16-3.53.03-.23-.09-.46-.12-.68-.09-1.08-.18-2.1-.52-2.93-1.11-2.29-1.62-4.1-3.94-6.19-5.8-2.25-2.01-4.88-3.38-7.83-4.03-3.62-.79-7.38-.41-11-1.22-3.68-.82-10.17-2.8-10.69-7.41-.25-2.19,1.17-3.99,2.78-5.3Zm97.38,149.88c-8.42,4.85-16.91,9.7-26.03,13.05-2.46.91-4.96,1.7-7.46,2.49-5.39,1.71-10.78,3.42-16.17,5.13-2.04-19.55-1.58-39.33-4.44-58.78-2.86-19.45-9.48-39.12-23.35-53.04-6.76-6.79-14.97-11.96-21.98-18.49-3.7-3.46-7.14-7.43-8.72-12.24s-.97-10.61,2.59-14.2c1.48-1.49,3.59-2.57,5.64-2.14,1.01.21,1.92.76,2.84,1.22,5.45,2.7,11.89,2.33,17.71,4.08,6.32,1.91,11.6,6.22,16.69,10.43.86.71,1.74,1.45,2.22,2.46,1.72,3.59-3.05,7.32-6.99,6.77s-7.13-3.37-10.77-4.96c-6.47-2.83-14.58-1.39-19.67,3.51,5.02-.34,9.99-1.27,14.8-2.75-4.39,2.29-8.18,5.72-10.89,9.86,5.06-2.01,9.77-4.92,13.83-8.55,4.46,2.92,9.48,5.79,14.78,5.18,5.3-.61,10.13-6.49,7.69-11.23,5.32-.36,9.14-6.95,6.8-11.74,1.82-.61,3.64-1.22,5.46-1.82-1.47,1.88-.72,5.05,1.43,6.07.48-9.43,7.77-17.06,10.43-26.12,2.4-8.17.89-16.97,2.18-25.38.97-6.35,4.57-13.54,10.78-16.18,1.18-.5,3.17-1.33,4.34-.39,1.55,1.26.08,3.64-.34,5.14-1.22,4.38-1.79,8.94-1.7,13.49.34,16.26,9.09,32.23,5.65,48.12-2.81,12.96-13.1,22.77-22.93,31.68.01,1.03,1.29,1.66,2.29,1.41s1.75-1.05,2.44-1.81c4.2-4.65,8.4-9.3,12.6-13.95-3.53,19.01-.78,38.65,3.79,57.44,4.56,18.79,10.93,37.13,14.78,56.08-.11.06-.22.13-.33.19Z"/>
        <path class="cls-3" d="m418.97,327.73c1.18.06,2.34.1,3.49.12,3.87.1,7.73,0,11.59-.17-5.06,4.54-8.94,10.63-6.16,17.61,2.97,7.45,10.62,12.54,17.1,16.69,4.35,2.78,8.86,5.29,13.33,7.86,2.46,1.42,5.01,2.82,7.38,4.43-13.99,1.37-28.63,10-33.29,23.54-2.63-4.93-6.5-9.25-11.89-11.12-1.6-.56-2.28,1.97-.7,2.52,5.64,1.97,9.48,7.36,11.65,12.7.44,1.08,2.23,1.41,2.52,0,3.24-15.62,20.34-25.14,35.38-25.21,1.06,0,1.84-1.48.93-2.23-2.63-2.18-5.6-3.93-8.54-5.65-3.74-2.19-7.53-4.29-11.26-6.51-3.82-2.27-7.6-4.66-11.1-7.4-3-2.35-5.92-5.01-7.93-8.28-1.7-2.76-2.4-5.89-1.48-9.04,1.28-4.34,5.13-7.69,8.65-10.26.96-.7.76-2.51-.66-2.44-5.43.28-10.91.54-16.37.36l-3.62-.18c-2.22-.16-4.43-.4-6.63-.76-7.25-1.19-15.79-4-18.37-11.68-1.33-3.96-.82-8.28.19-12.25.36-1.41-1.69-2.35-2.39-1.01-4.39,8.36-12.54,16.75-22.87,14.99-8.8-1.5-13.95-9.48-15.8-17.65-.23-2.18-.51-4.33-.82-6.45-.21-1.47-2.63-1.11-2.57.35.09,2.13.35,4.29.8,6.42.81,7.84.89,15.89-1.41,23.43-1.3,4.27-3.55,8.18-6.69,11.36-3.76,3.8-8.67,6.22-13.73,7.78-1.02.31-1.37,1.86-.31,2.39,5.45,2.74,10.81,5.87,15.41,9.9,3.84,3.37,8.04,8.24,7.02,13.75-.3,1.65,2.22,2.35,2.52.7,1.12-6.05-2.43-11.28-6.6-15.3-4.19-4.03-9.23-7.2-14.38-9.94,4.22-1.62,8.16-3.87,11.48-7.01,3.51-3.31,5.97-7.55,7.53-12.09,1.78-5.2,2.37-10.72,2.31-16.26,2.18,4,5.33,7.4,9.61,9.51,8.53,4.2,17.99.97,24.35-5.51,1.08-1.1,2.06-2.28,2.97-3.52-.12,2.47.12,4.95.92,7.32,1.22,3.64,3.76,6.55,6.92,8.66,5.21,3.46,11.69,4.78,18.04,5.32l3.48.23Z"/>
        <path class="cls-3" d="m390.8,243.94c3.22.31,6.58,1.25,8.58,3.97,1.83,2.49,2.4,5.75,2.91,8.75-.07.31.02.58.2.76.31.5,1,.5,1.48.16.2-.12.37-.3.47-.55,1.36-3.25,2.48-6.71,4.49-9.63,1.91-2.77,4.94-3.86,8.18-4.12.4-.03.69-.24.86-.51.96-.38.82-2.09-.42-2.1-3.01-.02-5.95-.78-8.2-2.86-2.44-2.24-3.49-5.55-3.99-8.72-.11-.71-.72-.9-1.25-.73-.53-.16-1.14.03-1.28.73-.64,3.2-1.47,6.5-3.44,9.17-1.97,2.68-5.19,3.25-8.29,2.66-.98-.19-1.56.85-1.3,1.54-.14.6.2,1.39,1.01,1.47Zm9.84-3.8c1.72-1.95,2.75-4.42,3.45-6.95.78,2.38,2.01,4.6,3.89,6.32,1.31,1.2,2.85,2.03,4.49,2.56-1.86.7-3.53,1.8-4.86,3.48-1.71,2.16-2.83,4.75-3.85,7.34-.54-2.3-1.32-4.55-2.76-6.42-1.3-1.7-3-2.81-4.89-3.54,1.69-.45,3.24-1.34,4.53-2.8Z"/>
        <path class="cls-3" d="m498.97,301.26c-3.01-.02-5.95-.78-8.2-2.86-2.44-2.24-3.49-5.55-3.99-8.72-.11-.71-.72-.9-1.25-.73-.53-.16-1.14.03-1.28.73-.64,3.2-1.47,6.5-3.44,9.17-1.97,2.68-5.19,3.25-8.29,2.66-.98-.19-1.56.85-1.3,1.54-.14.6.2,1.39,1.01,1.47,3.22.31,6.58,1.25,8.58,3.97,1.83,2.49,2.4,5.75,2.91,8.75-.07.31.02.58.2.76.31.5,1,.5,1.48.16.2-.12.37-.3.47-.55,1.36-3.25,2.48-6.71,4.49-9.63,1.91-2.77,4.94-3.86,8.18-4.12.4-.03.69-.24.86-.51.96-.38.82-2.09-.42-2.1Zm-9.94,4.89c-1.71,2.16-2.83,4.75-3.85,7.34-.54-2.3-1.32-4.55-2.76-6.42-1.3-1.7-3-2.81-4.89-3.54,1.69-.45,3.24-1.34,4.53-2.8,1.72-1.95,2.75-4.42,3.45-6.95.78,2.38,2.01,4.6,3.89,6.32,1.31,1.2,2.85,2.03,4.49,2.56-1.86.7-3.53,1.8-4.86,3.48Z"/>
      </g>
      <ellipse class="cls-1" cx="390.5" cy="660.71" rx="141" ry="19.5"/>
    </g>
  </g>
</svg>