<?xml version="1.0" encoding="UTF-8"?>
<svg id="Layer_2" data-name="Layer 2" xmlns="http://www.w3.org/2000/svg" viewBox="0 0 133.25 124.41">
  <defs>
    <style>
      .cls-1 {
        fill: none;
        fill-rule: evenodd;
        stroke: #ed5123;
        stroke-miterlimit: 10;
      }
    </style>
  </defs>
  <g id="Layer_1-2" data-name="Layer 1">
    <g>
      <path class="cls-1" d="m31.02,123.19c1.3-.9,1.35-3.32.04-4.49-.76-.67-2.02-.85-7.72-1.17-3.77-.18-8.44-.54-10.41-.85l-3.55-.54,1.53-1.17c11.54-8.75,20.29-16.7,21.1-19.12.63-1.89,0-3.59-1.66-4.4-1.26-.67-5.21-1.35-10.91-1.89-3.55-.36-8.89-1.53-9.2-1.98-.18-.36,6.06-6.06,14.27-13.06,3.77-3.23,5.7-5.88,5.7-7.81,0-2.69-2.69-5.25-9.11-8.62l-3.46-1.8,1.39-1.03c2.29-1.71,4-4.8,4-7.36,0-3.01-.58-3.91-2.47-3.91-1.35,0-1.71.27-2.74,1.93-1.84,2.92-3.77,4.76-6.55,6.19-2.78,1.44-3.95,2.69-3.95,4.44.04,1.89,1.3,2.96,7.63,6.28,3.32,1.8,6.33,3.46,6.64,3.77.49.49-.27,1.3-4.04,4.58-6.51,5.61-11,9.92-13.02,12.43-1.93,2.47-2.24,4.85-.94,7.05,1.44,2.47,6.87,4.44,14.68,5.34,2.2.27,4.08.54,4.17.63.22.27-4.62,4.4-13.2,11.27-4.26,3.37-7.95,6.51-8.21,7-2.87,5.34,6.1,8.98,22.22,8.98,5.39,0,6.96-.13,7.77-.72Z"/>
      <path class="cls-1" d="m82.33,101.65c7.54-4,20.16-17.91,20.16-22.18,0-2.38-1.98-3.73-4.22-2.87-.4.13-1.8,1.8-3.14,3.73-1.35,1.89-3.5,4.62-4.8,6.06-2.42,2.69-8.8,8.35-9.38,8.35-.18,0,.54-3.5,1.62-7.72,2.78-11.04,4.22-18,4.22-20.51,0-2.92-1.08-4.26-3.32-4.26-1.53,0-2.06.4-6.69,5.21-4.85,4.98-8.53,7.99-9.16,7.41-.13-.18.18-3.28.67-6.91,1.84-12.34,1.84-16.79.04-18.58-1.53-1.53-3.19-1.12-6.55,1.75-1.66,1.44-3.73,3.05-4.53,3.64l-1.44.99v-3.95c0-7.68-1.71-13.65-4-13.96-.58-.09-1.26.04-1.53.31-.67.67-.45,20.96.27,22.27.67,1.35,1.75,1.98,3.14,2.02,1.35,0,5.52-1.98,7.95-3.82l1.57-1.17.13,1.44c.09.76-.27,4.76-.81,8.84-1.17,8.8-1.03,11.04.72,12.57.99.85,1.57,1.03,2.92.85,2.51-.31,6.06-2.11,9.52-4.76,2.6-2.02,3.01-2.2,2.78-1.3-.13.58-1.12,4.76-2.2,9.34-3.37,14.1-3.46,15.53-1.3,17.73,1.62,1.62,3.73,1.48,7.36-.49h0Z"/>
      <path class="cls-1" d="m124.88,32.7c1.39-1.26,2.78-4.49,4.44-10.23,1.26-4.44,2.92-12.25,3.37-15.71.27-2.38-.45-4.44-1.8-4.98-2.47-.94-3.77.45-4.58,4.98-.67,3.64-2.56,11.18-3.5,14.05l-.67,2.2-2.33-5.34c-5.39-12.16-7.99-16.07-11.09-16.56-2.24-.36-3.64.94-5.34,5.07-.81,1.93-2.47,5.52-3.73,7.95l-2.29,4.49-1.26-5.25c-.67-2.87-1.75-6.33-2.38-7.68-1.89-3.95-4.67-5.88-7.14-4.94-.4.13-1.8,2.11-3.14,4.4-2.29,3.82-5.79,8.35-6.51,8.35-.18,0-.76-1.48-1.35-3.23-1.21-3.82-2.87-6.87-4.08-7.54-1.39-.76-3.46-.49-4.67.58-.63.54-1.93,2.38-2.87,4.13-.99,1.71-1.98,3.19-2.24,3.28-.22.04-1.57-1.26-2.96-3.01-3.05-3.77-4.08-4.58-5.39-4.13-1.53.58-1.44,2.51.36,6.06,2.87,5.88,5.79,8.26,8.98,7.41,1.75-.49,2.78-1.48,4.8-4.58l1.66-2.56,1.21,3.1c1.66,4.44,2.83,6.02,4.8,6.51,3.1.76,6.64-2.33,11.45-10.14l1.71-2.74.76,1.84c.45.99,1.53,4.8,2.42,8.48,1.08,4.53,1.89,6.96,2.51,7.63,2.83,3.01,6.55-.54,11.99-11.4l2.2-4.35,1.3,2.65c.76,1.48,3.01,6.6,5.07,11.31,2.02,4.76,4.22,9.16,4.85,9.79,1.44,1.44,4,1.53,5.43.13Z"/>
    </g>
  </g>
</svg>