<?xml version="1.0" encoding="UTF-8"?>
<svg id="Layer_2" data-name="Layer 2" xmlns="http://www.w3.org/2000/svg" viewBox="0 0 118.81 118.72">
  <defs>
    <style>
      .cls-1 {
        fill: none;
        fill-rule: evenodd;
        stroke: #ed5123;
        stroke-miterlimit: 10;
      }
    </style>
  </defs>
  <g id="Layer_1-2" data-name="Layer 1">
    <g>
      <path class="cls-1" d="m9.37,117.88c3.41-.44,3.54-.7,3.54-8.75,0-5.12-.26-8.35-1.09-13.34-1.4-8.75-1.97-15.48-1.97-24.75,0-8-.35-9.67-1.92-9.97-1.18-.26-3.24,1.97-3.5,3.8-.17.87-.66,5.73-1.14,10.76-.44,5.07-1.22,12.99-1.75,17.67-.48,4.64-.92,11.81-1.01,15.88-.09,7.3-.09,7.43.96,8.27,1.09.87,3.15,1.01,7.87.44Z"/>
      <path class="cls-1" d="m84.64,89.54c5.07-5.2,5.69-6.43,4.59-8.92-1.09-2.36-3.11-4.33-8.53-8.4-2.54-1.88-6.65-5.03-9.18-6.95-2.54-1.97-7.65-5.55-11.37-8-3.72-2.45-8.53-5.86-10.67-7.57-2.14-1.75-4.15-3.15-4.42-3.15-.31,0-.87.39-1.31.87-1.09,1.22-.57,2.62,1.88,5.12,2.19,2.14,7.09,8.18,12.55,15.44,3.15,4.2,6.08,7.92,10.72,13.56,2.62,3.24,6.08,8.18,7.52,10.89.66,1.14,1.01,1.36,2.41,1.36,1.53,0,2.01-.35,5.82-4.24Z"/>
      <path class="cls-1" d="m8.76,53.1c1.18-1.27,1.53-9.14.48-10.72-.96-1.49-3.02-1.49-4.02,0-.57.83-.66,1.97-.52,5.69.13,4.02.26,4.77.96,5.29,1.18.83,2.19.79,3.11-.26Z"/>
      <path class="cls-1" d="m38.8,42.56c1.31-.74.96-2.71-.96-5.12-2.84-3.63-4.77-4.46-6.34-2.71-1.44,1.62-.09,4.81,3.02,7.04,1.79,1.31,3.02,1.53,4.29.79Z"/>
      <path class="cls-1" d="m116.13,14.7c1.53-1.53,2.19-3.8,2.19-7.43,0-2.71-.83-5.42-1.92-6.08-1.01-.66-5.51-.87-10.54-.52-2.89.17-9.88.66-15.53,1.05-21.17,1.44-25.76,1.97-28.12,3.15-1.44.74-1.53,2.06-.22,2.93,1.31.83,11.02,2.71,18.33,3.59,3.24.35,9.1,1.14,13.08,1.71,3.98.57,9.32,1.27,11.85,1.53,2.54.26,5.29.66,6.12.87,2.41.7,3.46.52,4.77-.79Z"/>
      <path class="cls-1" d="m51.97,7.71c1.01-1.09.92-2.84-.17-3.85-1.09-1.01-6.39-1.14-8.62-.22-2.01.83-2.36,2.49-.79,3.85,1.05.87,1.62,1.01,5.03,1.01,3.15,0,3.98-.13,4.55-.79Z"/>
    </g>
  </g>
</svg>