<?xml version="1.0" encoding="UTF-8"?>
<svg id="Layer_2" data-name="Layer 2" xmlns="http://www.w3.org/2000/svg" viewBox="0 0 132.58 133.03">
  <defs>
    <style>
      .cls-1 {
        fill: none;
        fill-rule: evenodd;
        stroke: #ed5123;
        stroke-miterlimit: 10;
      }
    </style>
  </defs>
  <g id="Layer_1-2" data-name="Layer 1">
    <g>
      <path class="cls-1" d="m130.57,116.19c-2.67-1.64-7.54-1.12-16.54,1.78-4.12,1.36-8.43,2.72-9.61,3.05-1.97.56-2.11.7-2.11,2.25s.14,1.69,2.11,2.25c1.17.33,6.56,2.06,11.95,3.89,12.18,3.98,13.82,4.08,13.82.8,0-1.73-1.69-3.42-4.78-4.78l-2.44-1.08,3.14-1.03c5.58-1.87,7.64-5.11,4.45-7.12h0Z"/>
      <path class="cls-1" d="m104.38,43.09c-.84-.84-1.31-.94-3.65-.66-1.45.14-3.8.61-5.25.98-3.47.84-3.47.89-2.34-.7,1.64-2.25,3.33-6.28,3.33-7.87,0-4.64-6.89-3.7-10.78,1.45-2.01,2.72-10.07,17.66-10.54,19.63-.47,1.73.42,2.76,2.06,2.39.66-.19,2.91-1.12,4.97-2.11,2.06-.94,7.12-2.95,11.25-4.4,8.86-3.19,9.7-3.56,10.96-5.2,1.22-1.59,1.22-2.3,0-3.51Z"/>
      <path class="cls-1" d="m85.45,120.92c-1.83-1.55-32.85-2.72-35.61-1.36-2.67,1.31-2.76,3.51-.19,4.22,1.45.42,26.47.42,32.05,0,3.8-.23,4.22-.37,4.36-1.27.09-.52-.19-1.27-.61-1.59Z"/>
      <path class="cls-1" d="m67.18,67.04c-.47-.37-1.03-.47-1.64-.19-1.73.8-23.29,24.36-24.6,26.89-.84,1.64-.28,3.28,1.12,3.28.47,0,4.12-3.47,8.57-8.06,15.65-16.4,18.55-20.24,16.54-21.93Z"/>
      <path class="cls-1" d="m18.78,3.78c-1.27-3.98-6.09-2.58-7.97,2.39l-.84,2.34-1.08-2.58C7.06,1.44,3.17-.86,1.21,1.35.03,2.66.22,3.97,2.52,10.62c1.12,3.33,2.39,8.06,2.81,10.5,1.31,7.82,2.58,10.78,4.69,10.78,1.55,0,2.44-1.31,3.23-4.92.42-1.78,1.59-6.33,2.62-10.07,2.48-9.04,3.19-12.28,2.91-13.12Z"/>
      <path class="cls-1" d="m13.72,80.53c-.14-.19-.33-4.69-.47-10.07-.23-12.32-.98-23.52-1.73-25.82-.42-1.31-.84-1.78-1.78-1.87-2.25-.28-2.39.42-1.87,10.31.28,4.97.61,11.9.8,15.37.28,7.36,1.41,15.84,2.11,16.73.75.84,1.55.75,2.44-.23.75-.84,1.12-3.84.52-4.4Z"/>
    </g>
  </g>
</svg>