<?xml version="1.0" encoding="UTF-8"?>
<svg id="Layer_2" data-name="Layer 2" xmlns="http://www.w3.org/2000/svg" viewBox="0 0 136.46 133.5">
  <defs>
    <style>
      .cls-1 {
        fill: none;
        fill-rule: evenodd;
        stroke: #ed5123;
        stroke-miterlimit: 10;
      }
    </style>
  </defs>
  <g id="Layer_1-2" data-name="Layer 1">
    <g>
      <path class="cls-1" d="m134.6,120.63c-.81-.61-1.82-.96-2.42-.81-2.17.5-11.56,1.36-20.7,1.82-5.25.25-10.85.71-12.37.96-1.51.3-5.91.86-9.69,1.31-3.84.4-11.51,1.46-17.11,2.27-5.6.86-10.3,1.51-10.4,1.51-.05,0-.15.66-.15,1.41,0,.91.5,1.92,1.31,2.68l1.31,1.21,35.03-.1c19.33,0,35.23-.2,35.38-.35.5-.5,1.11-4.54,1.16-7.72,0-2.78-.15-3.23-1.36-4.19Z"/>
      <path class="cls-1" d="m96.29,49.51c-1.31-2.62-5.6-7.02-8.08-8.23-2.37-1.21-4.24-.4-5.75,2.47-3.33,6.31-17.41,24.28-29.28,37.25-2.52,2.78-5.4,6.41-6.41,8.08s-3.08,4.34-4.54,6.01c-2.12,2.27-2.68,3.23-2.57,4.29.2,1.62,1.72,1.97,3.79.86,1.56-.86,6.56-5,17.11-14.29,3.84-3.38,8.73-7.47,10.8-9.04,6.66-5.1,25.49-22.51,25.89-23.93.15-.56-.3-2.12-.96-3.48h0Z"/>
      <path class="cls-1" d="m77.56,102.36c-1.51-1.31-3.13-1.56-4.49-.66-.66.4-3.74,1.67-6.76,2.78-13.02,4.64-15.04,5.96-13.58,8.63.86,1.62,2.62,2.02,5.6,1.21,3.79-.96,13.38-4.44,15.9-5.75,3.94-1.97,5.25-4.49,3.33-6.21h0Z"/>
      <path class="cls-1" d="m37.08,61.22c-.61-1.36-2.22-1.87-3.63-1.16-1.26.71-5.05,8.58-6.31,13.02-1.62,5.8.25,10.25,3.68,8.58,1.01-.45,1.62-1.31,2.12-2.93.35-1.26,1.41-4.34,2.37-6.86,1.82-5.05,2.47-8.93,1.77-10.65Z"/>
      <path class="cls-1" d="m15.57,1.71c-1.31-1.31-1.46-1.31-6.21-1.11C4.01.85,1.44,1.76.73,3.68c-1.06,2.93,1.77,54.41,3.43,62.09.25,1.16.61,3.84.81,5.91.2,2.07.56,4.29.81,4.9.81,2.17,3.48,2.62,4.24.76.15-.45.56-7.12.81-14.74.4-13.07,1.36-26.15,2.52-35.84.56-4.95,2.83-20.29,3.28-22.31.25-1.06,0-1.67-1.06-2.73Z"/>
    </g>
  </g>
</svg>