<?xml version="1.0" encoding="UTF-8"?>
<svg id="Layer_2" data-name="Layer 2" xmlns="http://www.w3.org/2000/svg" viewBox="0 0 128.48 113.18">
  <defs>
    <style>
      .cls-1 {
        fill: none;
        fill-rule: evenodd;
        stroke: #ed5123;
        stroke-miterlimit: 10;
      }
    </style>
  </defs>
  <g id="Layer_1-2" data-name="Layer 1">
    <g>
      <path class="cls-1" d="m126.87,104.72c-1.14-1.33-1.23-1.33-6.06-1.28-26.42.33-71.59,1.18-73.2,1.42-2.32.28-4.17,1.75-4.64,3.6-.24,1.04,0,1.61,1.18,2.75l1.42,1.47,33.29-.19c39.92-.19,46.59-.66,48.44-3.31,1.04-1.47.9-2.94-.43-4.45Z"/>
      <path class="cls-1" d="m97.32,73c-.19-.28-.95-.76-1.61-1.04-1.61-.62-2.41-.38-15.77,4.88-21.07,8.29-28.46,11.17-31.35,12.17-3.65,1.23-4.97,2.6-4.97,4.97,0,2.18,1.37,3.5,3.6,3.5,1.8,0,8.62-2.41,17.19-6.11,3.6-1.52,9.42-4.02,12.93-5.49,7.86-3.31,18.28-8.43,19.46-9.52.95-.85,1.14-2.37.52-3.36Z"/>
      <path class="cls-1" d="m93.68,27.12c-1.66-1.09-3.46-.52-7.67,2.51-6.53,4.69-24.01,19.13-31.87,26.37-1.7,1.56-6.34,5.3-10.37,8.24-4.02,2.98-9.52,7.48-12.22,9.94-4.5,4.12-4.88,4.59-4.88,6.2,0,2.23,1.56,3.84,3.74,3.84s2.98-.52,7.62-4.73c2.23-1.99,5.45-4.55,7.1-5.68,5.4-3.69,11.03-8.14,15.39-12.36,3.79-3.55,21.73-19.37,30.07-26.47,3.93-3.31,4.21-3.69,4.26-5.54,0-1.14-.33-1.75-1.18-2.32Z"/>
      <path class="cls-1" d="m40.88,24.65c-.71-.71-1.56-1.04-2.84-1.04-2.41,0-3.74,1.7-5.35,6.87-4.4,13.92-9.28,28.65-10.84,32.58-2.13,5.45-2.37,8.52-.8,9.38,1.52.8,3.03-.62,5.45-5.02,2.46-4.5,8.71-20.12,11.7-29.17,1.18-3.55,2.46-7.1,2.89-7.91,1.04-2.04.95-4.45-.19-5.68Z"/>
      <path class="cls-1" d="m9.63,62.44c-.24-2.98-.52-14.73-.66-26.04-.38-25.1-.76-32.62-1.89-34.28C5.42-.49,1.82.17.82,3.25c-.38,1.14-.43,4.21-.14,9.94.19,4.55.38,16.29.38,26.09,0,12.45.24,20.17.76,25.81.8,8.81,1.23,10.75,2.41,12.07,1.09,1.23,3.6,1.18,4.73-.09,1.04-1.18,1.28-5.82.66-14.63Z"/>
    </g>
  </g>
</svg>